<svg xmlns="http://www.w3.org/2000/svg" width="751" height="1745.418" viewBox="0 0 751 1745.418">
  <g id="グループ_114" data-name="グループ 114" transform="translate(1 -97.93)">
    <rect id="THE_FLASH_OF_FLAME" data-name="THE FLASH OF FLAME" width="750" height="1745" transform="translate(0 98)" fill="rgba(255,255,255,0)"/>
    <path id="THE_FLASH_OF_FLAME-2" data-name="THE FLASH OF FLAME" d="M123.4,2A84.593,84.593,0,0,1,103.532-.071a39.2,39.2,0,0,1-14.4-6.457,27.349,27.349,0,0,1-8.742-11.161A40.132,40.132,0,0,1,77.5-33.55,40.02,40.02,0,0,1,80.392-49.4a27.227,27.227,0,0,1,8.744-11.127,39.225,39.225,0,0,1,14.4-6.422A85.159,85.159,0,0,1,123.4-69a85.159,85.159,0,0,1,19.867,2.055,39.225,39.225,0,0,1,14.4,6.422A27.228,27.228,0,0,1,166.408-49.4,40.021,40.021,0,0,1,169.3-33.55a40.132,40.132,0,0,1-2.892,15.861,27.349,27.349,0,0,1-8.742,11.161,39.2,39.2,0,0,1-14.4,6.457A84.593,84.593,0,0,1,123.4,2Zm0-69a83.178,83.178,0,0,0-19.393,2,37.254,37.254,0,0,0-13.668,6.076,25.524,25.524,0,0,0-4.73,4.606,25.653,25.653,0,0,0-3.38,5.715A38.057,38.057,0,0,0,79.5-33.55a38.169,38.169,0,0,0,2.73,15.073,25.8,25.8,0,0,0,3.38,5.731,25.627,25.627,0,0,0,4.73,4.624,37.233,37.233,0,0,0,13.668,6.11A82.622,82.622,0,0,0,123.4,0a82.622,82.622,0,0,0,19.392-2.014,37.232,37.232,0,0,0,13.668-6.11,25.627,25.627,0,0,0,4.73-4.624,25.8,25.8,0,0,0,3.38-5.731A38.169,38.169,0,0,0,167.3-33.55a38.058,38.058,0,0,0-2.73-15.057,25.653,25.653,0,0,0-3.38-5.715,25.523,25.523,0,0,0-4.73-4.606A37.254,37.254,0,0,0,142.793-65,83.178,83.178,0,0,0,123.4-67ZM713.3,1.8a8.205,8.205,0,0,1-4.062-.876,7.894,7.894,0,0,1-3.252-3.912L684.708-51.1,666.51.9h-12.72l.467-1.329,22-62.609a8.969,8.969,0,0,1,2.777-4.23A6.857,6.857,0,0,1,683.4-68.8a7.543,7.543,0,0,1,4.3,1.269,8.4,8.4,0,0,1,2.8,3.277l.016.033L713.5-13.7l22.984-50.514A7.369,7.369,0,0,1,743.5-68.8c3.318,0,5.89,2.042,7.24,5.75l.005.015L772.9.9H759.989l-.234-.671L741.889-51.1,720.615-2.989C718.736,1.232,715.863,1.8,713.3,1.8ZM684.492-56.539,707.815-3.8a6,6,0,0,0,2.4,2.976A6.075,6.075,0,0,0,713.3-.2c2.4,0,4.151-.6,5.486-3.6l23.325-52.746L761.411-1.1H770.1L748.858-62.373c-.738-2.022-2.266-4.43-5.358-4.43a5.622,5.622,0,0,0-3.2.928,5.47,5.47,0,0,0-1.974,2.452l-.013.029L713.5-8.867,688.7-63.379a5.737,5.737,0,0,0-5.3-3.424,4.811,4.811,0,0,0-3.107,1.087,7.024,7.024,0,0,0-2.144,3.323l-.005.015L656.611-1.1h8.479ZM863.688.9H797.8V-67.9h74.035l-8.643,11.184H810.6v18.075h58.14l-7.75,9.986H810.6v18.474h61.748ZM799.8-1.1h62.912l5.54-7.09H808.6V-30.654h51.41l4.65-5.992H808.6V-58.714h53.609l5.557-7.19H799.8ZM634.777.9H558.439l8.051-11.084h45.246L582.793-53.724,545.831.9H530.609l1.065-1.561,43.4-63.61h0a10.9,10.9,0,0,1,3.124-3.112A8.766,8.766,0,0,1,583-68.8a9.35,9.35,0,0,1,7.938,4.547Zm-72.416-2h68.663L589.262-63.162A7.513,7.513,0,0,0,583-66.8a6.8,6.8,0,0,0-3.722,1.1,8.888,8.888,0,0,0-2.546,2.547l-.005.008L534.391-1.1h10.377l38.039-56.218L615.464-8.186H567.51ZM506.188.9H445.2V-67.9H458v57.719h56.848ZM447.2-1.1h58.012l5.54-7.09H456V-65.9h-8.8Zm-85,2H349.4V-67.9h72.235l-8.643,11.184H362.2v18.674h55.728l-8.135,10.585H362.2Zm-10.8-2h8.8v-28.36h48.607l5.065-6.591H360.2V-58.714h51.809l5.557-7.19H351.4ZM210.1.9H197.3V-67.9h72.235l-8.643,11.184H210.1v18.674h55.728l-8.135,10.585H210.1Zm-10.8-2h8.8v-28.36h48.607l5.065-6.591H208.1V-58.714h51.809l5.557-7.19H199.3ZM-6.9.9H-19.7V-29.156H-69.1V.9H-81.9V-67.9h12.8V-40.34h49.4V-67.9H-6.9Zm-10.8-2h8.8V-65.9h-8.8v27.561H-71.1V-65.9h-8.8V-1.1h8.8V-31.153h53.4ZM-136.3.9h-60.848l8.66-11.084H-135.5c4.893,0,8.573-.838,10.939-2.491,2.261-1.58,3.361-3.9,3.361-7.1a8.365,8.365,0,0,0-1.172-4.7,7.07,7.07,0,0,0-3.417-2.609c-3.223-1.307-8.012-1.574-14.211-1.574h-27a46.229,46.229,0,0,1-11.251-1.228,22.55,22.55,0,0,1-8.089-3.68c-4.286-3.233-6.46-8.033-6.46-14.265,0-6.523,2.288-11.538,6.8-14.905a24.1,24.1,0,0,1,8.638-3.87A50.9,50.9,0,0,1-165.2-67.9h56.117L-117.6-56.717H-166c-4.856,0-8.525.839-10.9,2.492a8,8,0,0,0-3.4,7.094,7.892,7.892,0,0,0,1.138,4.507,6.849,6.849,0,0,0,3.363,2.489c3.177,1.238,8.014,1.492,14.3,1.492h27a47.421,47.421,0,0,1,10.97,1.137A22.893,22.893,0,0,1-115.452-34c4.414,3.183,6.652,8,6.652,14.328a22.337,22.337,0,0,1-1.634,8.845A16.132,16.132,0,0,1-115.543-4.3a23.509,23.509,0,0,1-8.611,3.907A50.749,50.749,0,0,1-136.3.9Zm-56.751-2H-136.3a48.78,48.78,0,0,0,11.66-1.231,21.541,21.541,0,0,0,7.883-3.557,14.159,14.159,0,0,0,4.485-5.729,20.371,20.371,0,0,0,1.472-8.056,17.755,17.755,0,0,0-1.475-7.487,13.249,13.249,0,0,0-4.348-5.222c-3.927-2.831-9.942-4.267-17.877-4.267h-27c-6.7,0-11.547-.272-15.026-1.629a8.769,8.769,0,0,1-4.3-3.237,9.8,9.8,0,0,1-1.477-5.619,9.99,9.99,0,0,1,4.254-8.733c2.721-1.891,6.774-2.85,12.046-2.85h47.4l5.478-7.19H-165.2c-8.765,0-15.36,1.6-19.6,4.769a14.122,14.122,0,0,0-4.517,5.593A18.807,18.807,0,0,0-190.8-47.83a18,18,0,0,0,1.412,7.362,13.468,13.468,0,0,0,4.253,5.309c3.962,2.989,10.064,4.5,18.135,4.5h27c6.433,0,11.44.293,14.964,1.721a8.991,8.991,0,0,1,4.337,3.364,10.271,10.271,0,0,1,1.5,5.8c0,3.841-1.418,6.779-4.214,8.732a14.742,14.742,0,0,1-5.123,2.155,31.084,31.084,0,0,1-6.963.7h-52.012Zm-23.272,2h-76.337l8.051-11.084h45.246l-28.943-43.541L-305.269.9h-15.222l1.065-1.561,43.4-63.61h0a10.9,10.9,0,0,1,3.124-3.112,8.766,8.766,0,0,1,4.8-1.419,9.35,9.35,0,0,1,7.938,4.547Zm-72.416-2h68.663l-41.761-62.066A7.513,7.513,0,0,0-268.1-66.8a6.8,6.8,0,0,0-3.722,1.1,8.888,8.888,0,0,0-2.546,2.547l-.005.008L-316.709-1.1h10.377l38.039-56.218,32.657,49.128H-283.59Zm-56.173,2H-405.9V-67.9h12.8v57.719h56.848Zm-58.988-2h58.012l5.54-7.09H-395.1V-65.9h-8.8Zm-85,2h-12.8V-67.9h72.235l-8.643,11.184H-488.9v18.674h55.728l-8.135,10.585H-488.9Zm-10.8-2h8.8v-28.36h48.607l5.065-6.591H-490.9V-58.714h51.809l5.557-7.19H-499.7Zm-90.612,2H-656.2V-67.9h74.035l-8.643,11.184H-643.4v18.075h58.14l-7.75,9.986H-643.4v18.474h61.748Zm-63.888-2h62.912l5.54-7.09H-645.4V-30.654h51.41l4.65-5.992H-645.4V-58.714h53.609l5.557-7.19H-654.2Zm-32.1,2h-12.8V-29.156h-49.4V.9h-12.8V-67.9h12.8V-40.34h49.4V-67.9h12.8Zm-10.8-2h8.8V-65.9h-8.8v27.561h-53.4V-65.9h-8.8V-1.1h8.8V-31.153h53.4ZM-823.6.9h-12.9V-56.717h-36.57l8.887-11.184h79.918l-8.643,11.184H-823.6Zm-10.9-2h8.9V-58.714h31.709l5.557-7.19h-74.882l-5.713,7.19h34.43ZM123.4-7.087c-12.542,0-20.97-1.869-26.524-5.881a18.743,18.743,0,0,1-6.506-8.3A31.983,31.983,0,0,1,88.3-33.55a31.873,31.873,0,0,1,2.071-12.264,18.631,18.631,0,0,1,6.508-8.269c5.539-3.977,13.966-5.83,26.521-5.83s20.982,1.852,26.521,5.83a18.631,18.631,0,0,1,6.508,8.269A31.873,31.873,0,0,1,158.5-33.55a31.984,31.984,0,0,1-2.07,12.279,18.743,18.743,0,0,1-6.506,8.3C144.37-8.956,135.942-7.087,123.4-7.087Zm0-50.828c-12.115,0-20.172,1.733-25.354,5.454a16.69,16.69,0,0,0-5.827,7.409,29.951,29.951,0,0,0-1.92,11.5,30.062,30.062,0,0,0,1.92,11.519,16.8,16.8,0,0,0,5.828,7.444c5.2,3.754,13.251,5.5,25.351,5.5s20.156-1.748,25.351-5.5a16.8,16.8,0,0,0,5.828-7.444A30.062,30.062,0,0,0,156.5-33.55a29.951,29.951,0,0,0-1.92-11.5,16.69,16.69,0,0,0-5.827-7.409C143.572-56.182,135.515-57.916,123.4-57.916Z" transform="translate(1 971) rotate(90)" fill="#fff"/>
  </g>
</svg>
