<svg xmlns="http://www.w3.org/2000/svg" width="751.1" height="341" viewBox="0 0 751.1 341">
  <g id="INFO" transform="translate(1.1 -7603)">
    <rect id="BG_INFO" data-name="BG INFO" width="750" height="341" transform="translate(0 7603)" fill="#fff"/>
    <path id="INFO-2" data-name="INFO" d="M121,2.1A84.48,84.48,0,0,1,101.132.026a39.173,39.173,0,0,1-14.4-6.466,27.382,27.382,0,0,1-8.742-11.177A40.236,40.236,0,0,1,75.1-33.5a40.128,40.128,0,0,1,2.892-15.869,27.26,27.26,0,0,1,8.744-11.143,39.2,39.2,0,0,1,14.4-6.431A85.041,85.041,0,0,1,121-69a85.041,85.041,0,0,1,19.866,2.058,39.2,39.2,0,0,1,14.4,6.431,27.26,27.26,0,0,1,8.744,11.143A40.129,40.129,0,0,1,166.9-33.5a40.237,40.237,0,0,1-2.892,15.884A27.382,27.382,0,0,1,155.266-6.44a39.173,39.173,0,0,1-14.4,6.466A84.48,84.48,0,0,1,121,2.1ZM121-67a83.071,83.071,0,0,0-19.393,2,37.228,37.228,0,0,0-13.668,6.085,25.537,25.537,0,0,0-4.73,4.612,25.7,25.7,0,0,0-3.38,5.723A38.16,38.16,0,0,0,77.1-33.5a38.269,38.269,0,0,0,2.73,15.095,25.836,25.836,0,0,0,3.38,5.74,25.642,25.642,0,0,0,4.73,4.631,37.2,37.2,0,0,0,13.668,6.119A82.509,82.509,0,0,0,121,.1a82.509,82.509,0,0,0,19.391-2.017,37.2,37.2,0,0,0,13.668-6.119,25.642,25.642,0,0,0,4.73-4.631,25.836,25.836,0,0,0,3.38-5.74A38.269,38.269,0,0,0,164.9-33.5a38.16,38.16,0,0,0-2.73-15.078,25.7,25.7,0,0,0-3.38-5.723,25.538,25.538,0,0,0-4.73-4.612A37.228,37.228,0,0,0,140.393-65,83.071,83.071,0,0,0,121-67ZM-52.6,1.6A6.991,6.991,0,0,1-57.9-.686L-110-50.462V1h-11.8V-61a8.13,8.13,0,0,1,2.093-5.907A6.756,6.756,0,0,1-114.8-68.8a7.4,7.4,0,0,1,5.4,2.386l52,49.773V-67.9h11.9V-6.2A8.034,8.034,0,0,1-47.651-.285,6.994,6.994,0,0,1-52.6,1.6ZM-112-55.138-56.493-2.107A5.015,5.015,0,0,0-52.6-.4a5.008,5.008,0,0,0,3.551-1.315A6.028,6.028,0,0,0-47.5-6.2V-65.9h-7.9v53.941l-55.407-53.034A5.345,5.345,0,0,0-114.8-66.8a4.865,4.865,0,0,0-3.493,1.307A6.125,6.125,0,0,0-119.8-61V-1h7.8ZM-3.1,1H-15.9V-67.9H56.335L47.691-56.7H-3.1V-38H52.628L44.493-27.4H-3.1ZM-13.9-1h8.8V-29.4H43.507L48.572-36H-5.1V-58.7H46.709l5.557-7.2H-13.9Zm-138,2h-12.8V-67.9h12.8Zm-10.8-2h8.8V-65.9h-8.8ZM121-7c-12.542,0-20.97-1.872-26.524-5.89A18.764,18.764,0,0,1,87.97-21.2,32.071,32.071,0,0,1,85.9-33.5a31.958,31.958,0,0,1,2.071-12.281,18.653,18.653,0,0,1,6.508-8.281C100.018-58.045,108.445-59.9,121-59.9s20.982,1.855,26.521,5.838a18.653,18.653,0,0,1,6.508,8.281A31.958,31.958,0,0,1,156.1-33.5a32.07,32.07,0,0,1-2.07,12.3,18.764,18.764,0,0,1-6.506,8.314C141.97-8.872,133.542-7,121-7Zm0-50.9c-12.115,0-20.172,1.736-25.354,5.462a16.709,16.709,0,0,0-5.827,7.419A30.03,30.03,0,0,0,87.9-33.5a30.143,30.143,0,0,0,1.92,11.535,16.82,16.82,0,0,0,5.829,7.455C100.844-10.751,108.9-9,121-9s20.156-1.751,25.351-5.51a16.82,16.82,0,0,0,5.829-7.455A30.143,30.143,0,0,0,154.1-33.5a30.031,30.031,0,0,0-1.92-11.519,16.709,16.709,0,0,0-5.827-7.419C141.172-56.164,133.115-57.9,121-57.9Z" transform="translate(1 7767.7) rotate(90)" fill="#0b0b0b"/>
  </g>
</svg>
