<svg xmlns="http://www.w3.org/2000/svg" xmlns:xlink="http://www.w3.org/1999/xlink" width="750" height="561" viewBox="0 0 750 561">
  <defs>
    <clipPath id="clip-path">
      <rect id="ABOUT_wrap" width="750" height="561" transform="translate(0 3812)" fill="#f4f4f4"/>
    </clipPath>
  </defs>
  <g id="ABOUT" transform="translate(0 -3812)">
    <rect id="ABOUT_wrap-2" data-name="ABOUT_wrap" width="750" height="561" transform="translate(0 3812)" fill="#f4f4f4"/>
    <g id="マスクグループ_1" data-name="マスクグループ 1" clip-path="url(#clip-path)">
      <path id="ABOUT-2" data-name="ABOUT" d="M270.755,38A89.705,89.705,0,0,1,250.7,36.028a38.8,38.8,0,0,1-14.037-6,24.788,24.788,0,0,1-8.244-10.134,34.582,34.582,0,0,1-2.637-14.025V-33.87h13.1V5.867c0,7.575,2.256,12.625,7.1,15.894a26.862,26.862,0,0,0,9.829,3.76,76.245,76.245,0,0,0,14.953,1.232,67,67,0,0,0,14.275-1.228,19.059,19.059,0,0,0,8.315-3.7,12.769,12.769,0,0,0,3.979-6.324,33.646,33.646,0,0,0,1.1-9.634V-33.87h13.2V5.867a35.526,35.526,0,0,1-2.582,14.014,25.348,25.348,0,0,1-7.8,10.124,35.048,35.048,0,0,1-12.825,6.017A70.813,70.813,0,0,1,270.755,38ZM227.778-31.87V5.867c0,10.26,3.289,17.633,10.055,22.54A36.832,36.832,0,0,0,251.15,34.08,87.735,87.735,0,0,0,270.755,36a68.841,68.841,0,0,0,17.161-1.914,33.077,33.077,0,0,0,12.1-5.658,23.371,23.371,0,0,0,7.187-9.334,33.554,33.554,0,0,0,2.421-13.227V-31.87h-9.2V5.867a35.515,35.515,0,0,1-1.184,10.209,14.705,14.705,0,0,1-4.6,7.277c-4.424,3.734-11.788,5.4-23.879,5.4a78.169,78.169,0,0,1-15.349-1.272,28.789,28.789,0,0,1-10.551-4.062,16.616,16.616,0,0,1-6.095-7.225,25.2,25.2,0,0,1-1.885-10.327V-31.87ZM150.744,38a86.778,86.778,0,0,1-20.408-2.13,40.224,40.224,0,0,1-14.784-6.639,28.107,28.107,0,0,1-8.974-11.473,41.317,41.317,0,0,1-2.969-16.309,41.205,41.205,0,0,1,2.97-16.294,28.432,28.432,0,0,1,3.741-6.332,28.267,28.267,0,0,1,5.235-5.107,40.247,40.247,0,0,1,14.783-6.6A87.351,87.351,0,0,1,150.744-35a87.351,87.351,0,0,1,20.406,2.114,40.247,40.247,0,0,1,14.783,6.6,28.267,28.267,0,0,1,5.235,5.107,28.432,28.432,0,0,1,3.741,6.332,41.205,41.205,0,0,1,2.97,16.294,41.317,41.317,0,0,1-2.969,16.309,28.108,28.108,0,0,1-8.974,11.473,40.224,40.224,0,0,1-14.784,6.639A86.778,86.778,0,0,1,150.744,38Zm0-71a85.38,85.38,0,0,0-19.933,2.057,38.28,38.28,0,0,0-14.054,6.257,26.267,26.267,0,0,0-4.865,4.744,26.43,26.43,0,0,0-3.476,5.887,39.236,39.236,0,0,0-2.807,15.5,39.348,39.348,0,0,0,2.807,15.521,25.969,25.969,0,0,0,8.342,10.667,38.253,38.253,0,0,0,14.054,6.292A84.8,84.8,0,0,0,150.744,36a84.8,84.8,0,0,0,19.931-2.073,38.253,38.253,0,0,0,14.054-6.292,25.969,25.969,0,0,0,8.342-10.667,39.348,39.348,0,0,0,2.807-15.521,39.237,39.237,0,0,0-2.807-15.5,26.43,26.43,0,0,0-3.476-5.887,26.267,26.267,0,0,0-4.865-4.744,38.28,38.28,0,0,0-14.054-6.257A85.379,85.379,0,0,0,150.744-33ZM385.088,36.87h-13.2V-22.417H334.342L343.43-33.87h82.046l-8.839,11.453H385.088Zm-11.2-2h9.2V-24.417h32.566l5.752-7.453H344.4l-5.914,7.453h35.406Zm-323.017,2h-56.9V-3.764H52.721a11,11,0,0,0,7.512-2.492,8.429,8.429,0,0,0,2.688-6.475c0-3.153-1.014-5.585-3.013-7.229a10.016,10.016,0,0,0-3.592-1.824,17.706,17.706,0,0,0-4.93-.633H-6.8L2.408-33.87H50.974a38.2,38.2,0,0,1,10.1,1.237,22.26,22.26,0,0,1,7.75,3.724,16.5,16.5,0,0,1,4.966,6.2,20.025,20.025,0,0,1,1.717,8.44A16.515,16.515,0,0,1,71.781-3.618,16.171,16.171,0,0,1,66.69.475a17.056,17.056,0,0,1,6.142,4.65,18.085,18.085,0,0,1,4.007,11.736,21.426,21.426,0,0,1-1.354,7.8,16.338,16.338,0,0,1-4.5,6.427C66.6,34.924,59.836,36.87,50.871,36.87Zm-54.9-2h54.9c8.466,0,14.791-1.779,18.8-5.288,3.43-3,5.169-7.282,5.169-12.721a17.607,17.607,0,0,0-.982-5.944,14.876,14.876,0,0,0-10.29-9.425L59.91.546l3.646-.988A13.548,13.548,0,0,0,70.239-4.89,14.539,14.539,0,0,0,73.5-14.272a18.047,18.047,0,0,0-1.533-7.6A14.523,14.523,0,0,0,67.6-27.326,20.28,20.28,0,0,0,60.54-30.7a36.218,36.218,0,0,0-9.566-1.165H3.366l-5.995,7.453H51.385a19.692,19.692,0,0,1,5.49.713,12,12,0,0,1,4.3,2.2,9.748,9.748,0,0,1,2.786,3.719,12.755,12.755,0,0,1,.956,5.055A10.375,10.375,0,0,1,61.571-4.77a12.951,12.951,0,0,1-8.851,3.005H-4.025Zm-26.763,2h-78.331l8.232-11.35h46.527l-29.79-44.879L-122.142,36.87h-15.575l45.655-67.01a11.181,11.181,0,0,1,3.2-3.2,8.972,8.972,0,0,1,4.92-1.456,9.577,9.577,0,0,1,8.129,4.661Zm-74.41-2h70.656L-77.479-29.035a7.745,7.745,0,0,0-6.458-3.759,7,7,0,0,0-3.839,1.139A9.166,9.166,0,0,0-90.4-29.027l-.006.008L-133.934,34.87H-123.2l39.07-57.823,33.5,50.473H-99.866Zm255.941-6.22c-12.881,0-21.536-1.921-27.237-6.047a19.254,19.254,0,0,1-6.675-8.531,32.927,32.927,0,0,1-2.125-12.624,32.809,32.809,0,0,1,2.126-12.608,19.139,19.139,0,0,1,6.677-8.5c5.686-4.089,14.34-5.993,27.235-5.993s21.548,1.9,27.234,5.993a19.139,19.139,0,0,1,6.677,8.5,32.809,32.809,0,0,1,2.126,12.608,32.927,32.927,0,0,1-2.125,12.624,19.254,19.254,0,0,1-6.675,8.531C172.28,26.728,163.625,28.65,150.744,28.65Zm0-52.3c-12.455,0-20.738,1.785-26.067,5.617a17.2,17.2,0,0,0-6,7.635,30.883,30.883,0,0,0-1.975,11.846,31,31,0,0,0,1.975,11.863,17.31,17.31,0,0,0,6,7.671c5.343,3.866,13.625,5.667,26.065,5.667s20.721-1.8,26.064-5.667a17.31,17.31,0,0,0,6-7.671,31,31,0,0,0,1.975-11.863A30.883,30.883,0,0,0,182.807-10.4a17.2,17.2,0,0,0-6-7.635C171.481-21.865,163.2-23.65,150.744-23.65ZM50.974,27.52H5.072V4.456H52.926a17.1,17.1,0,0,1,5.507.827,10.911,10.911,0,0,1,4.059,2.4,11.328,11.328,0,0,1,3.251,8.455,10.218,10.218,0,0,1-3.617,8.072,12.972,12.972,0,0,1-4.634,2.436A22.464,22.464,0,0,1,50.974,27.52Zm-43.9-2h43.9a20.486,20.486,0,0,0,5.934-.783,10.994,10.994,0,0,0,3.926-2.05,8.275,8.275,0,0,0,2.908-6.544,11.351,11.351,0,0,0-.67-4,8,8,0,0,0-1.962-3C59.249,7.357,56.5,6.456,52.926,6.456H7.072Z" transform="translate(716 3947.825) rotate(90)" fill="#0b0b0b"/>
    </g>
  </g>
</svg>
