<svg xmlns="http://www.w3.org/2000/svg" xmlns:xlink="http://www.w3.org/1999/xlink" width="750" height="477" viewBox="0 0 750 477">
  <defs>
    <clipPath id="clip-path">
      <rect id="BG_FLYER" data-name="BG FLYER" width="750" height="477" transform="translate(0 8234)" fill="rgba(244,244,244,0)"/>
    </clipPath>
  </defs>
  <g id="FLYER" transform="translate(0 -8234)">
    <rect id="BG_FLYER-2" data-name="BG FLYER" width="750" height="477" transform="translate(0 8234)" fill="#f4f4f4"/>
    <g id="マスクグループ_1" data-name="マスクグループ 1" clip-path="url(#clip-path)">
      <path id="FLYER-2" data-name="FLYER" d="M239.051,1H221.309l-.287-.266L197.408-21.1H160.4V1H147.6V-31.8h48.9c6.6,0,12.189-1,16.156-2.9,4.409-2.11,6.644-5.238,6.644-9.3a10.254,10.254,0,0,0-6.134-9.93c-3.739-1.864-9.191-2.77-16.666-2.77H146.365l8.643-11.2H200.5a53.11,53.11,0,0,1,11.629,1.217,33.614,33.614,0,0,1,10.193,3.968,21.049,21.049,0,0,1,7.305,7.248A21.137,21.137,0,0,1,232.4-44.6a21.212,21.212,0,0,1-1.67,8.5,18.7,18.7,0,0,1-4.765,6.552,23.609,23.609,0,0,1-7.372,4.366,33.941,33.941,0,0,1-7.243,1.822Zm-16.96-2h11.657L206.587-24.891l2.325-.205c6.567-.579,12-2.637,15.723-5.95A16.718,16.718,0,0,0,228.9-36.9a19.227,19.227,0,0,0,1.5-7.7,19.169,19.169,0,0,0-2.5-9.854,19.075,19.075,0,0,0-6.626-6.556,31.631,31.631,0,0,0-9.588-3.722A51.111,51.111,0,0,0,200.5-65.9H155.991l-5.557,7.2H196.5c7.793,0,13.536.975,17.559,2.98A12.244,12.244,0,0,1,221.3-44a10.991,10.991,0,0,1-2.158,6.709,14.83,14.83,0,0,1-5.622,4.393c-4.234,2.027-10.12,3.1-17.019,3.1H149.6V-1h8.8V-23.1h39.791l.287.266Zm-106.8,2H49.4V-67.9h74.035l-8.643,11.2H62.2v18.1h58.14l-7.75,10H62.2v18.5h61.749ZM51.4-1h62.912l5.54-7.1H60.2V-30.6h51.41l4.65-6H60.2V-58.7h53.609l5.557-7.2H51.4ZM-16.9,1H-29.7V-24.384L-73.422-67.9h16.837l33.478,33.478L9.68-67.9H26.2L-16.9-24.389ZM-27.7-1h8.8V-25.211L21.4-65.9H10.52L-23.093-31.578-57.414-65.9H-68.578L-27.7-25.216ZM-75.612,1H-136.6V-67.9h12.8v57.8h56.849ZM-134.6-1h58.012l5.54-7.1H-125.8V-65.9h-8.8Zm-85,2h-12.8V-67.9h72.235l-8.643,11.2H-219.6V-38h55.728l-8.135,10.6H-219.6Zm-10.8-2h8.8V-29.4h48.607l5.065-6.6H-221.6V-58.7h51.809l5.557-7.2H-230.4Z" transform="translate(683 8466.4) rotate(90)" fill="#0b0b0b"/>
    </g>
  </g>
</svg>
