<svg id="close" xmlns="http://www.w3.org/2000/svg" width="172.44" height="20.73" viewBox="0 0 172.44 20.73">
  <path id="パス_57" data-name="パス 57" d="M15.78-5.04l-5.13-5.19,5.13-5.13-1.26-1.32L9.33-11.49,4.2-16.65,2.91-15.36l5.16,5.13L2.91-5.07,4.2-3.78,9.33-8.91l5.19,5.13ZM48.06,0l2.13-2.73H39.27c-5.67,0-10.08-2.34-10.08-7.35s4.38-7.23,8.31-7.23H48.06l2.13-2.76H37.5c-6.66,0-11.55,3.96-11.55,9.84C25.95-4.41,30.84,0,37.5,0ZM76.08,0l2.13-2.73H61.47V-20.07H58.23V0Zm35.7-10.05c0-7.17-4.5-10.35-13.47-10.35S84.84-17.22,84.84-10.05,89.34.33,98.31.33,111.78-2.88,111.78-10.05Zm-3.24,0c0,5.64-3.12,7.65-10.23,7.65S88.08-4.41,88.08-10.05s3.12-7.62,10.23-7.62S108.54-15.69,108.54-10.05ZM137.28,0c5.52,0,7.95-2.04,7.95-5.88,0-3.63-2.52-5.4-7.41-5.4h-8.1c-3.81,0-5.94-.3-5.94-2.85,0-2.1,1.53-3.18,4.59-3.18h14.37l2.1-2.76H128.61c-5.52,0-7.98,2.07-7.98,5.73,0,3.51,2.37,5.46,7.44,5.46h8.1c3.75,0,5.94.33,5.94,2.97,0,2.1-1.5,3.18-4.59,3.18H121.77L119.64,0Zm35.94,0,2.13-2.73H157.14V-8.88h15.27l1.86-2.4H157.14v-6.03h15.93l2.13-2.76H153.9V0Z" transform="translate(-2.91 20.4)" fill="#0b0b0b"/>
</svg>
