<svg xmlns="http://www.w3.org/2000/svg" width="717.457" height="31.983" viewBox="0 0 717.457 31.983">
  <path id="パス_30" data-name="パス 30" d="M-592.267,0l-5.564-8.281a1.093,1.093,0,0,0-.923-.533,1.117,1.117,0,0,0-.923.533L-605.319,0h1.664l4.875-7.215,4,6.032h-6.058L-601.692,0Zm11.726-.182a.779.779,0,0,0,.6.26.778.778,0,0,0,.793-.884V-8.7h-1.287v6.838l-6.981-6.682a.823.823,0,0,0-.611-.273c-.416,0-.78.26-.78.884V0h1.274V-6.864ZM-569.79,0V-7.5h4.056l.923-1.2h-10.062l-.949,1.2h4.615V0Zm17.849,0V-8.7h-1.4v3.588h-6.682V-8.7h-1.4V0h1.4V-3.913h6.682V0Zm15.587-4.355c0-3.107-1.95-4.485-5.837-4.485s-5.837,1.378-5.837,4.485,1.95,4.5,5.837,4.5S-536.354-1.248-536.354-4.355Zm-1.4,0c0,2.444-1.352,3.315-4.433,3.315s-4.433-.871-4.433-3.315,1.352-3.3,4.433-3.3S-537.758-6.8-537.758-4.355ZM-524.719,0l.923-1.183h-7.254V-8.7h-1.4V0Zm15.47-4.355c0-3.107-1.95-4.485-5.837-4.485s-5.837,1.378-5.837,4.485,1.95,4.5,5.837,4.5S-509.249-1.248-509.249-4.355Zm-1.4,0c0,2.444-1.352,3.315-4.433,3.315s-4.433-.871-4.433-3.315,1.352-3.3,4.433-3.3S-510.653-6.8-510.653-4.355ZM-495.352,0V-4.992h-5.616l-.858,1.066h5.07v2.743H-500.6c-2.08,0-3.6-1.261-3.6-3.185s1.534-3.133,3.6-3.133h4.68l.91-1.2h-5.59c-2.886,0-5.005,1.716-5.005,4.264C-505.609-1.911-503.49,0-500.6,0Zm10.387,0V-3.224l5.421-5.473h-1.781l-4.316,4.407L-490.048-8.7h-1.82l5.5,5.473V0Zm23.855-3.692.858-1.118h-7.111V-7.5h6.669l.923-1.2h-9V0h1.4V-3.692ZM-447.941,0l.923-1.183h-7.891V-3.848h6.617l.806-1.04h-7.423V-7.5h6.9l.923-1.2h-9.23V0Zm16.536,0-5.564-8.281a1.094,1.094,0,0,0-.923-.533,1.117,1.117,0,0,0-.923.533L-444.457,0h1.664l4.875-7.215,4,6.032h-6.058L-440.83,0Zm6.11,0V-7.5h4.056l.923-1.2h-10.062l-.949,1.2h4.615V0Zm17.433-3.8c0,1.95-.624,2.769-3.627,2.769s-4.16-.819-4.16-2.769V-8.7h-1.4v4.9c0,2.626,1.677,3.939,5.564,3.939,3.354,0,5.044-1.313,5.044-3.939V-8.7h-1.417ZM-390.988,0l-3.562-3.133c1.768-.156,2.912-1.105,2.912-2.665,0-2.119-1.989-2.9-4.017-2.9h-5.85l-.923,1.2h6.253c1.807,0,3.094.4,3.094,1.781,0,1.248-1.469,1.716-3.094,1.716H-402.4V0h1.4V-2.873h4.992L-392.9,0Zm4.94,0V-8.7h-1.4V0Zm12.441-.182a.779.779,0,0,0,.6.26.778.778,0,0,0,.793-.884V-8.7H-373.5v6.838l-6.981-6.682a.823.823,0,0,0-.611-.273c-.416,0-.78.26-.78.884V0h1.274V-6.864Zm15.5.182V-4.992h-5.616l-.858,1.066h5.07v2.743h-3.848c-2.08,0-3.6-1.261-3.6-3.185s1.534-3.133,3.6-3.133h4.68l.91-1.2h-5.59c-2.886,0-5.005,1.716-5.005,4.264,0,2.522,2.119,4.433,5.005,4.433Zm23.894,0-5.564-8.281a1.094,1.094,0,0,0-.923-.533,1.117,1.117,0,0,0-.923.533L-347.269,0h1.664l4.875-7.215,4,6.032h-6.058L-343.642,0Zm13.546,0-7.306-4.576,6.916-4.121h-2.145l-6.11,3.809V-8.7h-1.4V0h1.4V-4.173L-322.868,0Zm4.875,0V-8.7h-1.4V0Zm15.626,0-3.562-3.133c1.768-.156,2.912-1.105,2.912-2.665,0-2.119-1.989-2.9-4.017-2.9h-5.85l-.923,1.2h6.253c1.807,0,3.094.4,3.094,1.781,0,1.248-1.469,1.716-3.094,1.716h-6.227V0h1.4V-2.873h4.992L-302.081,0Zm15.912,0-5.564-8.281a1.094,1.094,0,0,0-.923-.533,1.117,1.117,0,0,0-.923.533L-297.31,0h1.664l4.875-7.215,4,6.032h-6.058L-293.683,0Zm15.73-.416a1.093,1.093,0,0,0,.923.533,1.088,1.088,0,0,0,.923-.533l5.629-8.281H-262.7l-4.875,7.2-4.784-7.2h-1.729ZM-248.339,0-253.9-8.281a1.093,1.093,0,0,0-.923-.533,1.117,1.117,0,0,0-.923.533L-261.391,0h1.664l4.875-7.215,4,6.032h-6.058L-257.764,0Zm10.647,0c2.392,0,3.445-.884,3.445-2.548,0-1.573-1.092-2.34-3.211-2.34h-3.51c-1.651,0-2.574-.13-2.574-1.235,0-.91.663-1.378,1.989-1.378h6.227l.91-1.2h-7.033c-2.392,0-3.458.9-3.458,2.483,0,1.521,1.027,2.366,3.224,2.366h3.51c1.625,0,2.574.143,2.574,1.287,0,.91-.65,1.378-1.989,1.378h-6.825L-245.336,0Zm8.632,0V-8.7h-1.4V0Zm11.947,0,.923-1.183h-7.254V-8.7h-1.4V0Zm7.566,0V-3.224l5.421-5.473h-1.781l-4.316,4.407L-214.63-8.7h-1.82l5.5,5.473V0Zm17.628,0V-8.7h-1.4V0Zm14.209,0V-4.992h-5.616l-.858,1.066h5.07v2.743h-3.848c-2.08,0-3.6-1.261-3.6-3.185s1.534-3.133,3.6-3.133h4.68l.91-1.2h-5.59c-2.886,0-5,1.716-5,4.264,0,2.522,2.119,4.433,5,4.433Zm12.4-.182a.779.779,0,0,0,.6.26.778.778,0,0,0,.793-.884V-8.7H-165.2v6.838l-6.981-6.682a.823.823,0,0,0-.611-.273c-.416,0-.78.26-.78.884V0h1.274V-6.864Zm17.68.182-5.564-8.281a1.093,1.093,0,0,0-.923-.533,1.117,1.117,0,0,0-.923.533L-160.68,0h1.664l4.875-7.215,4,6.032H-156.2L-157.053,0Zm6.11,0V-7.5h4.056l.923-1.2H-146.6l-.949,1.2h4.615V0Zm18.6-4.355c0-3.107-1.95-4.485-5.837-4.485s-5.837,1.378-5.837,4.485,1.95,4.5,5.837,4.5S-122.915-1.248-122.915-4.355Zm-1.4,0c0,2.444-1.352,3.315-4.433,3.315s-4.433-.871-4.433-3.315,1.352-3.3,4.433-3.3S-124.319-6.8-124.319-4.355Zm9,3.939a1.093,1.093,0,0,0,.923.533,1.088,1.088,0,0,0,.923-.533l5.629-8.281H-109.5l-4.875,7.2-4.784-7.2h-1.729Zm21.8-3.523.7-.91h-4.095l-.7.91ZM-74.789,0c2.392,0,3.445-.884,3.445-2.548,0-1.573-1.092-2.34-3.211-2.34h-3.51c-1.651,0-2.574-.13-2.574-1.235,0-.91.663-1.378,1.989-1.378h6.227l.91-1.2h-7.033C-80.938-8.7-82-7.8-82-6.214c0,1.521,1.027,2.366,3.224,2.366h3.51c1.625,0,2.574.143,2.574,1.287,0,.91-.65,1.378-1.989,1.378H-81.51L-82.433,0Zm15.574,0,.923-1.183h-7.891V-3.848h6.617l.806-1.04h-7.423V-7.5h6.9l.923-1.2h-9.23V0Zm12.623-.182a.779.779,0,0,0,.6.26A.778.778,0,0,0-45.2-.806V-8.7h-1.287v6.838l-6.981-6.682a.823.823,0,0,0-.611-.273c-.416,0-.78.26-.78.884V0h1.274V-6.864ZM-31.044,0-38.35-4.576-31.434-8.7h-2.145l-6.11,3.809V-8.7h-1.4V0h1.4V-4.173L-33.241,0ZM-15.2,0l-5.564-8.281a1.093,1.093,0,0,0-.923-.533,1.117,1.117,0,0,0-.923.533L-28.249,0h1.664l4.875-7.215,4,6.032h-6.058L-24.622,0ZM-.884-3.939l.7-.91H-4.277l-.7.91ZM-710.918,20.166c2.405,0,3.913-1.04,3.913-2.886s-1.521-2.977-3.913-2.977H-716.7l-.936,1.2h6.227c1.781,0,3,.416,3,1.768,0,1.261-1.339,1.729-2.99,1.729h-6.214v4h1.4V20.166ZM-695.955,23c2.392,0,3.445-.884,3.445-2.548,0-1.573-1.092-2.34-3.211-2.34h-3.51c-1.651,0-2.574-.13-2.574-1.235,0-.91.663-1.378,1.989-1.378h6.227l.91-1.2h-7.033c-2.392,0-3.458.9-3.458,2.483,0,1.521,1.027,2.366,3.224,2.366h3.51c1.625,0,2.574.143,2.574,1.287,0,.91-.65,1.378-1.989,1.378h-6.825L-703.6,23Zm13.416,0V19.776l5.421-5.473H-678.9l-4.316,4.407-4.407-4.407h-1.82l5.5,5.473V23Zm17.1,0,.923-1.183h-4.732c-2.457,0-4.368-1.014-4.368-3.185s1.9-3.133,3.6-3.133h4.576l.923-1.2h-5.5c-2.886,0-5.005,1.716-5.005,4.264,0,2.522,2.119,4.433,5.005,4.433Zm13.9,0V14.3h-1.4v3.588h-6.682V14.3h-1.4V23h1.4V19.087h6.682V23Zm15.587-4.355c0-3.107-1.95-4.485-5.837-4.485s-5.837,1.378-5.837,4.485,1.95,4.5,5.837,4.5S-635.96,21.752-635.96,18.645Zm-1.4,0c0,2.444-1.352,3.315-4.433,3.315s-4.433-.871-4.433-3.315,1.352-3.3,4.433-3.3S-637.364,16.2-637.364,18.645Zm8.8.416.7-.91h-4.1l-.7.91Zm10.959,1.1c2.405,0,3.913-1.04,3.913-2.886S-615.212,14.3-617.6,14.3h-5.785l-.936,1.2h6.227c1.781,0,3,.416,3,1.768,0,1.261-1.339,1.729-2.99,1.729H-624.3v4h1.4V20.166ZM-599.339,23l-5.564-8.281a1.093,1.093,0,0,0-.923-.533,1.117,1.117,0,0,0-.923.533L-612.391,23h1.664l4.875-7.215,4,6.032h-6.058L-608.764,23Zm10.647,0c2.392,0,3.445-.884,3.445-2.548,0-1.573-1.092-2.34-3.211-2.34h-3.51c-1.651,0-2.574-.13-2.574-1.235,0-.91.663-1.378,1.989-1.378h6.227l.91-1.2h-7.033c-2.392,0-3.458.9-3.458,2.483,0,1.521,1.027,2.366,3.224,2.366h3.51c1.625,0,2.574.143,2.574,1.287,0,.91-.65,1.378-1.989,1.378h-6.825L-596.336,23Zm14.352,0c2.392,0,3.445-.884,3.445-2.548,0-1.573-1.092-2.34-3.211-2.34h-3.51c-1.651,0-2.574-.13-2.574-1.235,0-.91.663-1.378,1.989-1.378h6.227l.91-1.2H-578.1c-2.392,0-3.458.9-3.458,2.483,0,1.521,1.027,2.366,3.224,2.366h3.51c1.625,0,2.574.143,2.574,1.287,0,.91-.65,1.378-1.989,1.378h-6.825L-581.984,23Zm23.6-3.8c0,1.95-.624,2.769-3.627,2.769s-4.16-.819-4.16-2.769V14.3h-1.4v4.9c0,2.626,1.677,3.939,5.564,3.939,3.354,0,5.044-1.313,5.044-3.939V14.3h-1.417Zm13.689,3.614a.779.779,0,0,0,.6.26.778.778,0,0,0,.793-.884V14.3h-1.287v6.838l-6.981-6.682a.823.823,0,0,0-.611-.273c-.416,0-.78.26-.78.884V23h1.274V16.136Zm16.913-4.173c0-3.107-1.95-4.485-5.837-4.485s-5.837,1.378-5.837,4.485,1.95,4.5,5.837,4.5S-520.143,21.752-520.143,18.645Zm-1.4,0c0,2.444-1.352,3.315-4.433,3.315s-4.433-.871-4.433-3.315,1.352-3.3,4.433-3.3S-521.547,16.2-521.547,18.645Zm12.961.663.858-1.118h-7.111V15.5h6.669l.923-1.2h-9V23h1.4V19.308Zm12.454,0,.858-1.118h-7.111V15.5h6.669l.923-1.2h-9V23h1.4V19.308ZM-489.9,23V14.3h-1.4V23Zm13.533,0,.923-1.183h-4.732c-2.457,0-4.368-1.014-4.368-3.185s1.9-3.133,3.6-3.133h4.576l.923-1.2h-5.5c-2.886,0-5.005,1.716-5.005,4.264,0,2.522,2.119,4.433,5.005,4.433Zm5.837,0V14.3h-1.4V23Zm16.614,0-5.564-8.281a1.094,1.094,0,0,0-.923-.533,1.117,1.117,0,0,0-.923.533L-466.973,23h1.664l4.875-7.215,4,6.032h-6.058L-463.346,23Zm11.232,0,.923-1.183h-7.254V14.3h-1.4V23Zm19.357-3.692.858-1.118h-7.111V15.5h6.669l.923-1.2h-9V23h1.4V19.308ZM-408.226,23l-5.564-8.281a1.094,1.094,0,0,0-.923-.533,1.117,1.117,0,0,0-.923.533L-421.278,23h1.664l4.875-7.215,4,6.032h-6.058L-417.651,23Zm11.726-.182a.779.779,0,0,0,.6.26.778.778,0,0,0,.793-.884V14.3H-396.4v6.838l-6.981-6.682a.823.823,0,0,0-.611-.273c-.416,0-.78.26-.78.884V23h1.274V16.136Zm19.89.182c2.353,0,3.159-1.066,3.159-2.405a2.049,2.049,0,0,0-1.521-2.067,1.911,1.911,0,0,0,1.352-1.872c0-1.534-1.131-2.353-2.977-2.353h-6.084l-.962,1.2h7.1c.975,0,1.586.455,1.586,1.352a1.262,1.262,0,0,1-1.417,1.261h-7.306V23Zm.26-3.848c1,0,1.495.546,1.495,1.352,0,.715-.52,1.313-1.742,1.313h-5.681V19.152Zm18.213-.507c0-3.107-1.95-4.485-5.837-4.485s-5.837,1.378-5.837,4.485,1.95,4.5,5.837,4.5S-358.137,21.752-358.137,18.645Zm-1.4,0c0,2.444-1.352,3.315-4.433,3.315s-4.433-.871-4.433-3.315,1.352-3.3,4.433-3.3S-359.541,16.2-359.541,18.645Zm16.718,0c0-3.107-1.95-4.485-5.837-4.485s-5.837,1.378-5.837,4.485,1.95,4.5,5.837,4.5S-342.823,21.752-342.823,18.645Zm-1.4,0c0,2.444-1.352,3.315-4.433,3.315s-4.433-.871-4.433-3.315,1.352-3.3,4.433-3.3S-344.227,16.2-344.227,18.645ZM-328.874,23l-7.306-4.576,6.916-4.121h-2.145l-6.11,3.809V14.3h-1.4V23h1.4V18.827L-331.071,23Zm19.994,0,.91-1.183h-8.97v-1.4c0-.884.624-1.261,1.82-1.261h3.8c2.288,0,3.224-.962,3.224-2.405s-.975-2.444-3.484-2.444h-5.3l-.91,1.2h5.629c1.794,0,2.717.312,2.717,1.326,0,.832-.611,1.287-2,1.287h-3.8c-1.976,0-3.055.754-3.055,2.314V23Zm14.677-4.355c0-3.107-1.7-4.485-5.07-4.485s-5.07,1.378-5.07,4.485,1.69,4.5,5.07,4.5S-294.2,21.752-294.2,18.645Zm-1.391,0c0,2.444-1.131,3.315-3.679,3.315s-3.679-.871-3.679-3.315,1.131-3.3,3.679-3.3S-295.594,16.2-295.594,18.645ZM-281.086,23l.91-1.183h-8.97v-1.4c0-.884.624-1.261,1.82-1.261h3.8c2.288,0,3.224-.962,3.224-2.405s-.975-2.444-3.484-2.444h-5.3l-.91,1.2h5.629c1.794,0,2.717.312,2.717,1.326,0,.832-.611,1.287-2,1.287h-3.8c-1.976,0-3.055.754-3.055,2.314V23Zm13.273,0V21.44h1.339l.832-1.118h-2.171V15.083a.782.782,0,0,0-.78-.884,1.362,1.362,0,0,0-.858.4l-6.955,5.616a.745.745,0,0,0-.312.6.658.658,0,0,0,.715.624h6.851V23Zm-1.339-2.678h-5.525l5.525-4.446Zm8.372,2.08a.75.75,0,0,0-.845-.715.734.734,0,0,0-.819.715.734.734,0,0,0,.819.715A.75.75,0,0,0-260.78,22.4Zm10.387.6c2.353,0,3.159-1.066,3.159-2.405a2.02,2.02,0,0,0-1.521-2.054,1.928,1.928,0,0,0,1.352-1.885c0-1.534-1.131-2.353-2.977-2.353H-256.3l-.91,1.2h6.877c.988,0,1.586.455,1.586,1.352a1.324,1.324,0,0,1-1.274,1.248h-4.433l-.754,1.053h5.174a1.279,1.279,0,0,1,1.4,1.274c0,1.079-.884,1.391-1.755,1.391h-6.279l-.91,1.183Zm8.463-.6a.75.75,0,0,0-.845-.715.734.734,0,0,0-.819.715.734.734,0,0,0,.819.715A.75.75,0,0,0-241.93,22.4Zm5.629.6V14.3h-1.911l-1.625,2.262h1.352l.767-1.066V23Zm7.124,0,5.863-7.215a1.475,1.475,0,0,0,.442-.871c0-.3-.26-.611-.806-.611h-8.19l-.91,1.2h8.021l-6.2,7.5Zm26.6,0V14.3h-1.4v3.588h-6.682V14.3h-1.4V23h1.4V19.087h6.682V23ZM-186,23l-5.564-8.281a1.093,1.093,0,0,0-.923-.533,1.117,1.117,0,0,0-.923.533L-199.056,23h1.664l4.875-7.215,4,6.032h-6.058L-195.429,23Zm14.911,0-3.562-3.133c1.768-.156,2.912-1.1,2.912-2.665,0-2.119-1.989-2.9-4.017-2.9h-5.85l-.923,1.2h6.253c1.807,0,3.094.4,3.094,1.781,0,1.248-1.469,1.716-3.094,1.716h-6.227v4h1.4V20.127h4.992L-173,23Zm12.584-3.8c0,1.95-.624,2.769-3.627,2.769s-4.16-.819-4.16-2.769V14.3h-1.4v4.9c0,2.626,1.677,3.939,5.564,3.939,3.354,0,5.044-1.313,5.044-3.939V14.3h-1.417Zm22.1,3.8.923-1.183h-4.732c-2.457,0-4.368-1.014-4.368-3.185s1.9-3.133,3.6-3.133h4.576l.923-1.2h-5.5c-2.886,0-5,1.716-5,4.264,0,2.522,2.119,4.433,5,4.433Zm15.821-4.355c0-3.107-1.95-4.485-5.837-4.485s-5.837,1.378-5.837,4.485,1.95,4.5,5.837,4.5S-120.588,21.752-120.588,18.645Zm-1.4,0c0,2.444-1.352,3.315-4.433,3.315s-4.433-.871-4.433-3.315,1.352-3.3,4.433-3.3S-121.992,16.2-121.992,18.645ZM-102.531,23l-2.821-8.151a.869.869,0,0,0-.819-.663.83.83,0,0,0-.793.52l-3.107,6.838-3.107-6.838a.874.874,0,0,0-.806-.52.855.855,0,0,0-.806.663L-117.65,23h1.378l2.444-6.994,2.9,6.565a.793.793,0,0,0,.832.546.8.8,0,0,0,.832-.546l2.9-6.565L-103.935,23Zm4.979,0V14.3h-1.4V23Zm13.533,0,.923-1.183h-4.732c-2.457,0-4.368-1.014-4.368-3.185s1.9-3.133,3.6-3.133h4.576l.923-1.2h-5.5c-2.886,0-5.005,1.716-5.005,4.264,0,2.522,2.119,4.433,5.005,4.433Zm21.047,0,.923-1.183h-4.732c-2.457,0-4.368-1.014-4.368-3.185s1.9-3.133,3.6-3.133h4.576l.923-1.2h-5.5c-2.886,0-5.005,1.716-5.005,4.264,0,2.522,2.119,4.433,5.005,4.433Zm5.837,0V14.3h-1.4V23Zm9.464,0V15.5h4.056l.923-1.2H-52.754l-.949,1.2h4.615V23ZM-33.1,23V19.776l5.421-5.473h-1.781l-4.316,4.407L-38.181,14.3H-40l5.5,5.473V23Zm15.392,0c2.353,0,3.159-1.066,3.159-2.405a2.02,2.02,0,0,0-1.521-2.054,1.928,1.928,0,0,0,1.352-1.885c0-1.534-1.131-2.353-2.977-2.353h-5.915l-.91,1.2h6.877c.988,0,1.586.455,1.586,1.352A1.324,1.324,0,0,1-17.329,18.1h-4.433l-.754,1.053h5.174a1.279,1.279,0,0,1,1.4,1.274c0,1.079-.884,1.391-1.755,1.391h-6.279L-24.882,23Zm16.289,0,.91-1.183h-8.97v-1.4c0-.884.624-1.261,1.82-1.261h3.8c2.288,0,3.224-.962,3.224-2.405S-1.612,14.3-4.121,14.3h-5.3l-.91,1.2h5.629c1.794,0,2.717.312,2.717,1.326,0,.832-.611,1.287-2,1.287h-3.8c-1.976,0-3.055.754-3.055,2.314V23Z" transform="translate(717.639 8.84)" fill="#f2f2f2"/>
</svg>
