<svg xmlns="http://www.w3.org/2000/svg" width="18" height="163" viewBox="0 0 18 163">
  <g id="Scroll" transform="translate(-637.5 -119)">
    <rect id="scroll-2" data-name="scroll" width="18" height="163" transform="translate(637.5 119)" fill="rgba(255,255,255,0)"/>
    <path id="Please_Scroll" data-name="Please Scroll" d="M9.342-9.324c0-2.16-1.854-3.42-4.086-3.42h-.27c-1.062.054-1.8.108-2.682.108-.432,0-.918-.018-1.494-.054H.792a.21.21,0,0,0-.2.234.376.376,0,0,0,.162.306c1.62.2,1.6.018,1.674,2.682.018.45.018,1.3.018,2.214,0,1.26,0,2.646-.018,3.348C2.358-.738,2.322-.828.81-.666a.383.383,0,0,0-.162.324c0,.126.072.216.162.216H.846A12.991,12.991,0,0,1,2.808-.252c1.4,0,2.772.126,2.772.126a.22.22,0,0,0,.2-.234.432.432,0,0,0-.162-.306C3.942-.81,3.852-.9,3.744-3.888,3.726-4.428,3.726-5,3.726-5.6c0-1.206.018-2.52.018-3.87v-.486c0-.63.018-1.026.036-1.368,0-.774.72-.882,1.26-.882C7.884-12.2,7.9-9.234,7.9-8.928A2.508,2.508,0,0,1,5.094-6.3H4.95a.24.24,0,0,0-.216.252c0,.144.108.288.4.288C6.858-5.76,9.342-6.552,9.342-9.324ZM14.454-.558c-1.062-.108-1.17-.612-1.224-1.1-.036-.486-.054-2.592-.054-3.312,0-3.546.018-6.66.18-8.478v-.018a.15.15,0,0,0-.162-.162.135.135,0,0,0-.09.018,7.933,7.933,0,0,1-2.052.684.273.273,0,0,0-.126.234c0,.09.054.18.216.216.486.126.738.162.774,1.08.072,1.1.09,2.988.09,4.608,0,3.636-.036,4.626-.072,5.13-.036.432-.072,1.044-1.116,1.1a.318.318,0,0,0-.144.27.147.147,0,0,0,.144.162h.036A9.958,9.958,0,0,1,12.4-.216c1.008,0,1.98.072,1.98.072a.2.2,0,0,0,.18-.216A.249.249,0,0,0,14.454-.558Zm7.272-.558a.346.346,0,0,0-.288-.324.163.163,0,0,0-.126.054A2.314,2.314,0,0,1,19.548-.7C17.8-.7,16.83-2.25,16.83-3.888c0-.684.144-.792.522-.792.846,0,2.178-.018,3.06-.054,1.008-.054,1.224-.576,1.224-.828a2.3,2.3,0,0,0-2.484-1.89,3.764,3.764,0,0,0-3.546,3.888A3.422,3.422,0,0,0,19.044.144C20.97.144,21.726-.954,21.726-1.116ZM20.286-5.85c0,.306-.378.378-.54.4a14.236,14.236,0,0,0-2.718.414h-.036c-.036,0-.054-.036-.054-.09a2.088,2.088,0,0,1,1.926-1.836A1.325,1.325,0,0,1,20.286-5.85ZM29.934-.828c0-.126-.126-.342-.234-.342-.036,0-.054,0-.072.018a2.044,2.044,0,0,1-.774.306c-.4,0-.7-.684-.7-1.458,0-.4.072-1.836.162-2.9v-.252A1.759,1.759,0,0,0,26.3-7.434a3.1,3.1,0,0,0-2.97,1.98.4.4,0,0,0,.45.378.78.78,0,0,0,.342-.072c.666-.306.684-.63.7-.972a1,1,0,0,1,.972-.738c1.26,0,1.26,1.53,1.26,1.8-.036.414-.054.738-.054.828-.018.144-.072.126-.108.144A22.548,22.548,0,0,1,24.1-2.952a2.006,2.006,0,0,0-1.278,1.638A1.568,1.568,0,0,0,24.462.2a3.454,3.454,0,0,0,2.412-1.26q.027-.054.054-.054c.036,0,.036.108.09.27a1.16,1.16,0,0,0,1.188.972A1.983,1.983,0,0,0,29.934-.828ZM26.982-3.114a4.551,4.551,0,0,0-.018.5,2.658,2.658,0,0,0,.018.378V-2.2a2.162,2.162,0,0,1-1.62,1.6c-.792,0-1.026-.918-1.026-1.152a.887.887,0,0,1,.5-.846c.2-.108,1.98-.9,2.052-.9s.09.072.09.216ZM34.938-2.07c0-1.134-.612-1.764-2.106-2.664-.63-.378-.954-.612-.954-1.206A1.1,1.1,0,0,1,33.12-7.092c.7,0,1.062.612,1.368,1.26a.14.14,0,0,0,.126.054c.126,0,.27-.054.27-.144a5.205,5.205,0,0,0-.2-1.134c-.144-.288-.864-.432-1.548-.432-.972,0-2.3.54-2.3,1.872,0,1.062.468,1.53,1.98,2.466a1.761,1.761,0,0,1,.972,1.458,1.266,1.266,0,0,1-1.35,1.314c-.9,0-1.314-.81-1.548-1.494a.28.28,0,0,0-.252-.108c-.126,0-.252.054-.252.162.18,1.314.216,1.458.36,1.53a4.7,4.7,0,0,0,1.746.36A2.227,2.227,0,0,0,34.938-2.07Zm7.578.954a.346.346,0,0,0-.288-.324.163.163,0,0,0-.126.054A2.314,2.314,0,0,1,40.338-.7C38.592-.7,37.62-2.25,37.62-3.888c0-.684.144-.792.522-.792.846,0,2.178-.018,3.06-.054,1.008-.054,1.224-.576,1.224-.828a2.3,2.3,0,0,0-2.484-1.89A3.764,3.764,0,0,0,36.4-3.564,3.422,3.422,0,0,0,39.834.144C41.76.144,42.516-.954,42.516-1.116ZM41.076-5.85c0,.306-.378.378-.54.4a14.236,14.236,0,0,0-2.718.414h-.036c-.036,0-.054-.036-.054-.09a2.088,2.088,0,0,1,1.926-1.836A1.325,1.325,0,0,1,41.076-5.85ZM52.848-2.07c0-1.134-.612-1.764-2.106-2.664-.63-.378-.954-.612-.954-1.206A1.1,1.1,0,0,1,51.03-7.092c.7,0,1.062.612,1.368,1.26a.14.14,0,0,0,.126.054c.126,0,.27-.054.27-.144a5.205,5.205,0,0,0-.2-1.134c-.144-.288-.864-.432-1.548-.432-.972,0-2.3.54-2.3,1.872,0,1.062.468,1.53,1.98,2.466A1.761,1.761,0,0,1,51.7-1.692a1.266,1.266,0,0,1-1.35,1.314c-.9,0-1.314-.81-1.548-1.494a.28.28,0,0,0-.252-.108c-.126,0-.252.054-.252.162.18,1.314.216,1.458.36,1.53A4.7,4.7,0,0,0,50.4.072,2.227,2.227,0,0,0,52.848-2.07ZM60.8-1.4a.284.284,0,0,0-.252-.306.231.231,0,0,0-.18.072,2.782,2.782,0,0,1-1.764.792h-.054c-.432,0-2.97-.072-2.97-3.294A2.521,2.521,0,0,1,58.05-6.966a2.127,2.127,0,0,1,1.566.828s.432.576.756.576c.144,0,.288-.09.288-.4,0-.576-.414-1.386-.864-1.386h-.018a.883.883,0,0,1-.2.018,1.78,1.78,0,0,1-.27-.018,6.524,6.524,0,0,0-.99-.09,3.891,3.891,0,0,0-3.978,4.068A3.344,3.344,0,0,0,57.888.108,3.29,3.29,0,0,0,60.8-1.4Zm5.58-6.03a3.653,3.653,0,0,0-2.25,1.188c-.108,0-.108-.072-.108-.072v-.036l.054-.918a.267.267,0,0,0-.216-.288,8.65,8.65,0,0,1-1.728.684.151.151,0,0,0-.108.144.157.157,0,0,0,.108.162c.828.18.828.846.846,1.764v2.178c0,1.368-.036,1.962-1.17,2.052a.409.409,0,0,0-.144.252.166.166,0,0,0,.162.18h.018a9.379,9.379,0,0,1,1.494-.09c1.08,0,2.16.09,2.178.09.09,0,.144-.09.144-.2a.3.3,0,0,0-.108-.252c-1.386-.18-1.422-.4-1.422-2.088,0-.162-.018-.936-.018-1.6,0-.342,0-.666.018-.864A1.164,1.164,0,0,1,65.214-6.3a1.687,1.687,0,0,1,.756.2.575.575,0,0,0,.252.054,1.032,1.032,0,0,0,.9-.9C67.122-7.218,66.924-7.434,66.384-7.434ZM75.42-3.618a3.6,3.6,0,0,0-3.672-3.816A3.723,3.723,0,0,0,68-3.618,3.589,3.589,0,0,0,71.712.126,3.6,3.6,0,0,0,75.42-3.618Zm-1.386.288c0,1.3-.4,3.006-2.178,3.006-2.34,0-2.484-3.1-2.484-3.672,0-1.548.738-3.024,2.286-3.024C73.656-7.02,74.034-4.428,74.034-3.33ZM84.24-3.618a3.6,3.6,0,0,0-3.672-3.816,3.723,3.723,0,0,0-3.744,3.816A3.589,3.589,0,0,0,80.532.126,3.6,3.6,0,0,0,84.24-3.618Zm-1.386.288c0,1.3-.4,3.006-2.178,3.006-2.34,0-2.484-3.1-2.484-3.672,0-1.548.738-3.024,2.286-3.024C82.476-7.02,82.854-4.428,82.854-3.33Zm6.48,2.772c-1.062-.108-1.17-.612-1.224-1.1-.036-.486-.054-2.592-.054-3.312,0-3.546.018-6.66.18-8.478v-.018a.15.15,0,0,0-.162-.162.135.135,0,0,0-.09.018,7.933,7.933,0,0,1-2.052.684.273.273,0,0,0-.126.234c0,.09.054.18.216.216.486.126.738.162.774,1.08.072,1.1.09,2.988.09,4.608,0,3.636-.036,4.626-.072,5.13-.036.432-.072,1.044-1.116,1.1a.318.318,0,0,0-.144.27.147.147,0,0,0,.144.162h.036a9.958,9.958,0,0,1,1.548-.09c1.008,0,1.98.072,1.98.072a.2.2,0,0,0,.18-.216A.249.249,0,0,0,89.334-.558Zm4.806,0c-1.062-.108-1.17-.612-1.224-1.1-.036-.486-.054-2.592-.054-3.312,0-3.546.018-6.66.18-8.478v-.018a.15.15,0,0,0-.162-.162.135.135,0,0,0-.09.018,7.933,7.933,0,0,1-2.052.684.273.273,0,0,0-.126.234c0,.09.054.18.216.216.486.126.738.162.774,1.08.072,1.1.09,2.988.09,4.608,0,3.636-.036,4.626-.072,5.13-.036.432-.072,1.044-1.116,1.1a.318.318,0,0,0-.144.27.147.147,0,0,0,.144.162h.036a9.958,9.958,0,0,1,1.548-.09c1.008,0,1.98.072,1.98.072a.2.2,0,0,0,.18-.216A.249.249,0,0,0,94.14-.558Z" transform="translate(640 118.5) rotate(90)" fill="#f2f2f2"/>
    <g id="upper" transform="translate(-2 -854)">
      <path id="多角形_2" data-name="多角形 2" d="M5.5,0,11,9H0Z" transform="translate(653 1107) rotate(180)" fill="#f2f2f2"/>
    </g>
  </g>
</svg>
