<svg xmlns="http://www.w3.org/2000/svg" width="620" height="690" viewBox="0 0 620 690">
  <g id="表紙画像" transform="translate(0 -3962)">
    <rect id="長方形_66" data-name="長方形 66" width="620" height="690" transform="translate(0 3962)" fill="#707070"/>
    <path id="ABOUT-COMING_SOON" data-name="ABOUT-COMING SOON" d="M31.08,0l2.84-3.64H19.36c-7.56,0-13.44-3.12-13.44-9.8S11.76-23.08,17-23.08H31.08l2.84-3.68H17c-8.88,0-15.4,5.28-15.4,13.12C1.6-5.88,8.12,0,17,0ZM79.76-13.4c0-9.56-6-13.8-17.96-13.8S43.84-22.96,43.84-13.4,49.84.44,61.8.44,79.76-3.84,79.76-13.4Zm-4.32,0c0,7.52-4.16,10.2-13.64,10.2S48.16-5.88,48.16-13.4,52.32-23.56,61.8-23.56,75.44-20.92,75.44-13.4ZM135.32,0l-8.68-25.08a2.673,2.673,0,0,0-2.52-2.04,2.554,2.554,0,0,0-2.44,1.6L112.12-4.48l-9.56-21.04a2.69,2.69,0,0,0-2.48-1.6,2.63,2.63,0,0,0-2.48,2.04L88.8,0h4.24l7.52-21.52,8.92,20.2A2.441,2.441,0,0,0,112.04.36a2.468,2.468,0,0,0,2.56-1.68l8.92-20.2L131,0Zm15.32,0V-26.76h-4.32V0Zm38.28-.56a2.4,2.4,0,0,0,1.84.8,2.393,2.393,0,0,0,2.44-2.72V-26.76h-3.96V-5.72L167.76-26.28a2.534,2.534,0,0,0-1.88-.84c-1.28,0-2.4.8-2.4,2.72V0h3.92V-21.12ZM236.6,0V-15.36H219.32l-2.64,3.28h15.6v8.44H220.44c-6.4,0-11.08-3.88-11.08-9.8s4.72-9.64,11.08-9.64h14.4l2.8-3.68h-17.2c-8.88,0-15.4,5.28-15.4,13.12,0,7.76,6.52,13.64,15.4,13.64Zm57.36,0c7.36,0,10.6-2.72,10.6-7.84,0-4.84-3.36-7.2-9.88-7.2h-10.8c-5.08,0-7.92-.4-7.92-3.8,0-2.8,2.04-4.24,6.12-4.24h19.16l2.8-3.68H282.4c-7.36,0-10.64,2.76-10.64,7.64,0,4.68,3.16,7.28,9.92,7.28h10.8c5,0,7.92.44,7.92,3.96,0,2.8-2,4.24-6.12,4.24h-21L270.44,0Zm57.28-13.4c0-9.56-6-13.8-17.96-13.8s-17.96,4.24-17.96,13.8S321.32.44,333.28.44,351.24-3.84,351.24-13.4Zm-4.32,0c0,7.52-4.16,10.2-13.64,10.2s-13.64-2.68-13.64-10.2,4.16-10.16,13.64-10.16S346.92-20.92,346.92-13.4Zm51.44,0c0-9.56-6-13.8-17.96-13.8s-17.96,4.24-17.96,13.8S368.44.44,380.4.44,398.36-3.84,398.36-13.4Zm-4.32,0c0,7.52-4.16,10.2-13.64,10.2s-13.64-2.68-13.64-10.2,4.16-10.16,13.64-10.16S394.04-20.92,394.04-13.4ZM435.68-.56a2.4,2.4,0,0,0,1.84.8,2.393,2.393,0,0,0,2.44-2.72V-26.76H436V-5.72L414.52-26.28a2.534,2.534,0,0,0-1.88-.84c-1.28,0-2.4.8-2.4,2.72V0h3.92V-21.12Z" transform="translate(89 4321)" fill="#fff"/>
  </g>
</svg>
