<svg id="コンポーネント_4_1" data-name="コンポーネント 4 – 1" xmlns="http://www.w3.org/2000/svg" width="320.507" height="152.659" viewBox="0 0 320.507 152.659">
  <path id="パス_1" data-name="パス 1" d="M851.156,824.287a5.879,5.879,0,0,1-6.239,5.892c-2.427,0-4.334-1.386-4.334-5.025v-.52c1.386-26.512,2.253-67.752,2.253-103.448,0-7.1-.172-14.037-.172-20.447,0-2.253-.347-14.557-1.733-21.315a5.562,5.562,0,0,1-.174-1.386c0-.518.174-.518.345-.518,2.428,0,12.823,5.37,14.383,6.583l.866.866h23.739a2.512,2.512,0,0,0,2.253-1.213c1.386-1.733,2.426-2.944,3.986-2.944,2.253,0,11.955,5.717,11.955,8.49,0,1.56-2.078,2.6-2.944,3.293-3.294,2.426-3.466,3.466-3.466,6.239,0,12.822.692,29.109.866,34.31v.345a5.375,5.375,0,0,1-5.372,5.545c-1.906,0-3.466-1.213-3.466-4.159v-.345c0-1.215.173-2.6.173-4.161H850.461c-.172,9.184-.172,19.062-.172,28.766,0,26.858.345,53.368.866,64.806Zm33.1-115.057H850.808c-.173,5.024-.173,10.569-.173,16.634h33.617Zm-29.8-19.582-.693.52c-2.6,1.386-2.426,1.906-2.6,6.585,0,2.426-.348,5.024-.348,7.971h33.443c0-5.2-.173-10.051-.52-13.517,0-1.213-.52-1.56-1.386-1.56Zm39.509,47.132c0-.173,0-.173.173-.173,2.944,0,15.075,1.04,15.075,3.292,0,.693-.693,1.56-1.906,2.08,3.466,25.818,13.688,50.251,42.281,56.836q1.037.26,1.038.52c0,1.04-8.663,2.426-13.688,5.719a1.5,1.5,0,0,1-1.04.52c-4.5,0-30.149-20.448-30.669-63.074-1.215.346-2.081.866-2.081,4.332-.519,24.779-8.143,51.637-45.4,63.767a12.954,12.954,0,0,1-3.464.692c-.521,0-.695,0-.695-.173,0-.693,1.386-1.731,2.947-2.424C886.5,795.176,895,770.224,895,746.138a35.492,35.492,0,0,0-1.04-9.011Zm28.763-6.412v2.6a5.026,5.026,0,0,1-5.2,4.85c-2.08,0-3.812-1.213-3.812-4.159v-.692c1.04-11.611,1.213-18.542,1.213-23.739,0-2.426,0-19.582-1.906-28.939a5.964,5.964,0,0,1-.173-1.56c0-.345,0-.52.347-.52,1.038,0,11.09,3.812,13.863,6.065.171.173.346.52.692.693h25.992a2.509,2.509,0,0,0,2.253-1.213c.695-.866,2.773-2.944,3.986-2.944.173,0,12.822,4.851,12.822,8.49,0,1.56-2.253,2.6-3.119,3.293-3.811,2.773-3.464,3.812-3.638,7.971-.173,3.811-.173,9.01-.173,15.075,0,25.3.866,64.807,1.213,76.589,0,1.213.52,14.037.52,16.289-.347,19.06-20.1,19.06-20.273,19.06-1.561,0-1.213-1.04-2.253-2.253-2.427-3.119-18.715-9.878-18.715-11.436,0-.173.347-.348,1.041-.348a12.335,12.335,0,0,1,2.253.175c7.8,1.211,14.035,2.251,18.712,2.251,10.744,0,10.744-4.159,10.744-22.526,0-15.594-.347-41.24-.693-63.074Zm3.466-40.72-1.038.52c-2.6,1.386-2.428,1.386-2.6,6.758,0,1.04-.173,3.813-.173,7.8h35.521c-.173-7.278-.345-12.3-.52-13.863a1.459,1.459,0,0,0-1.386-1.213ZM958.07,709.23h-35.7c0,4.677,0,10.4.173,16.634h35.868Z" transform="translate(-840.584 -677.52)" fill="#f2f2f2"/>
  <path id="パス_2" data-name="パス 2" d="M1029.278,715.121c0-12.648,0-28.418-1.906-36.043,0-.346-.172-.692-.172-1.04s.172-.518,1.038-.518c1.386,0,18.022,3.292,18.022,7.45,0,1.213-1.386,2.253-3.467,3.119,0,1.733-.172,3.639-.172,5.545,0,7.623.52,16.288.52,23.739a117.409,117.409,0,0,0,3.986,30.671c3.119-1.733,33.27-20.1,37.774-36.909,0-.52.346-.693.52-.693,1.04,0,12.3,9.531,13.517,10.917,1.386,1.56,1.906,2.6,1.906,3.293,0,1.559-1.906,1.9-3.639,1.9a9.947,9.947,0,0,1-2.253-.172,21.718,21.718,0,0,0-2.6-.347c-1.386,0-1.906.693-4.159,2.078-8.491,5.72-26.685,16.116-40.548,21.834,8.84,29.8,30.844,57.009,70.524,62.726,1.215.173,1.735.348,1.735.52,0,1.04-13.342,2.6-20.1,8.318a1.968,1.968,0,0,1-1.386.52c-1.559,0-57.009-22.353-57.877-103.794-.172-8.838-.347-19.409-.347-29.284-3.117.693-3.117,1.213-3.117,12.822v17.156c-.173,47.652-19.754,95.477-73.47,105.874a32.021,32.021,0,0,1-4.506.52c-.867,0-1.213,0-1.213-.347,0-.693,2.424-1.906,4.505-2.426,46.266-12.3,66.885-59.435,66.885-105.181Zm-46.785,39.16a11.862,11.862,0,0,1,2.6-6.583c5.892-7.8,6.933-16.114,6.933-26.685,0-2.773-.175-5.719-.175-8.838,0-1.386,0-1.906.175-1.906.52,0,8.663,11.437,8.663,27.2,0,17.329-10.4,22.006-13.343,22.006C984.572,759.48,982.493,757.4,982.493,754.281Z" transform="translate(-799.397 -677.52)" fill="#f2f2f2"/>
</svg>
