<svg xmlns="http://www.w3.org/2000/svg" xmlns:xlink="http://www.w3.org/1999/xlink" width="512" height="512" viewBox="0 0 512 512"><defs><clipPath id="a"><path d="M1043.981,301.358c-28.595-24.992-68.636-39.413-115.173-39.413-121.29,0-203.788,93.635-203.788,93.635l23.247,36.9s12.862,1.078,6.05-20.66c5.879-11.112,17.39-26.069,39.863-43.336V574.341c-9.688,2.729-22.49,7.862-13.762,16.6H847.2c8.811-8.824-5.073-14.134-13.536-16.6v-58s45.787,17.975,95.145,17.975c43.369,0,82.829-12.9,112.176-36.214,29.352-23.185,48.26-57.786,48.149-97.354a130.516,130.516,0,0,0-45.152-99.388M924.734,511.389c-37.981.022-69.955-7.338-91.071-17.743V309.21c23.164-16.466,60.73-26.6,91.071-26.544,36.854.027,65.8,13.957,85.363,35.1,19.542,21.267,30.208,49.519,30.307,82.363-.121,32-11.521,58.349-31.82,78.567C988.291,498.741,958.779,511.411,924.734,511.389Z" fill="none" clip-rule="evenodd"/></clipPath><clipPath id="b"><rect width="512" height="512" transform="translate(656.913 164.945)" fill="none"/></clipPath></defs><g transform="translate(-656.913 -164.945)"><path d="M1168.913,270.335c0-57.966-47.425-105.39-105.39-105.39H762.3c-57.965,0-105.389,47.424-105.39,105.39v301.22c0,57.965,47.425,105.389,105.39,105.39h301.22c57.965,0,105.39-47.425,105.39-105.39C1168.612,600.454,1168.913,270.335,1168.913,270.335Z" fill="#0096fa" fill-rule="evenodd"/><g clip-path="url(#a)"><g clip-path="url(#b)"><rect width="374.114" height="339" transform="translate(720.02 256.945)" fill="#fff"/></g></g></g></svg>