<svg xmlns="http://www.w3.org/2000/svg" width="491" height="61" viewBox="0 0 491 61">
  <g id="CONCEPT" transform="translate(-139 -971)">
    <rect id="BG" width="491" height="61" transform="translate(139 971)" fill="rgba(255,255,255,0)"/>
    <g id="コンポーネント_9_1" data-name="コンポーネント 9 – 1" transform="translate(201 984.597)">
      <path id="パス_51" data-name="パス 51" d="M38.85,0,42.4-4.55H24.2c-9.45,0-16.8-3.9-16.8-12.25s7.3-12.05,13.85-12.05h17.6l3.55-4.6H21.25C10.15-33.45,2-26.85,2-17.05,2-7.35,10.15,0,21.25,0ZM99.7-16.75C99.7-28.7,92.2-34,77.25-34S54.8-28.7,54.8-16.75,62.3.55,77.25.55,99.7-4.8,99.7-16.75Zm-5.4,0C94.3-7.35,89.1-4,77.25-4S60.2-7.35,60.2-16.75s5.2-12.7,17.05-12.7S94.3-26.15,94.3-16.75ZM146.35-.7a2.994,2.994,0,0,0,2.3,1c1.6,0,3.05-1,3.05-3.4V-33.45h-4.95v26.3L119.9-32.85a3.167,3.167,0,0,0-2.35-1.05c-1.6,0-3,1-3,3.4V0h4.9V-26.4Zm57,.7,3.55-4.55H188.7c-9.45,0-16.8-3.9-16.8-12.25s7.3-12.05,13.85-12.05h17.6l3.55-4.6H185.75c-11.1,0-19.25,6.6-19.25,16.4C166.5-7.35,174.65,0,185.75,0ZM252.5,0l3.55-4.55H225.7V-14.8h25.45l3.1-4H225.7V-28.85h26.55l3.55-4.6H220.3V0Zm42.65-10.9c9.25,0,15.05-4,15.05-11.1,0-7.15-5.85-11.45-15.05-11.45H272.9l-3.6,4.6h23.95c6.85,0,11.55,1.6,11.55,6.8,0,4.85-5.15,6.65-11.5,6.65H269.4V0h5.4V-10.9ZM345.4,0V-28.85H361l3.55-4.6h-38.7l-3.65,4.6h17.75V0Z" transform="translate(-2 34)" fill="#0b0b0b"/>
    </g>
  </g>
</svg>
