<svg xmlns="http://www.w3.org/2000/svg" width="491" height="61" viewBox="0 0 491 61">
  <g id="CONTACT" transform="translate(-139 -1082)">
    <rect id="BG" width="491" height="61" transform="translate(139 1082)" fill="rgba(255,255,255,0)"/>
    <g id="コンポーネント_8_1" data-name="コンポーネント 8 – 1" transform="translate(201 1094.597)">
      <path id="パス_50" data-name="パス 50" d="M38.85,0,42.4-4.55H24.2c-9.45,0-16.8-3.9-16.8-12.25s7.3-12.05,13.85-12.05h17.6l3.55-4.6H21.25C10.15-33.45,2-26.85,2-17.05,2-7.35,10.15,0,21.25,0ZM99.7-16.75C99.7-28.7,92.2-34,77.25-34S54.8-28.7,54.8-16.75,62.3.55,77.25.55,99.7-4.8,99.7-16.75Zm-5.4,0C94.3-7.35,89.1-4,77.25-4S60.2-7.35,60.2-16.75s5.2-12.7,17.05-12.7S94.3-26.15,94.3-16.75ZM146.35-.7a2.994,2.994,0,0,0,2.3,1c1.6,0,3.05-1,3.05-3.4V-33.45h-4.95v26.3L119.9-32.85a3.167,3.167,0,0,0-2.35-1.05c-1.6,0-3,1-3,3.4V0h4.9V-26.4ZM187.7,0V-28.85h15.6l3.55-4.6h-38.7l-3.65,4.6h17.75V0Zm69.8,0L236.1-31.85a4.206,4.206,0,0,0-3.55-2.05A4.3,4.3,0,0,0,229-31.85L207.3,0h6.4l18.75-27.75,15.4,23.2h-23.3L221.25,0Zm44.4,0,3.55-4.55h-18.2c-9.45,0-16.8-3.9-16.8-12.25s7.3-12.05,13.85-12.05h17.6l3.55-4.6H284.3c-11.1,0-19.25,6.6-19.25,16.4C265.05-7.35,273.2,0,284.3,0Zm37.15,0V-28.85h15.6l3.55-4.6H319.5l-3.65,4.6H333.6V0Z" transform="translate(-2 34)" fill="#0b0b0b"/>
    </g>
  </g>
</svg>
