<svg xmlns="http://www.w3.org/2000/svg" width="491" height="61" viewBox="0 0 491 61">
  <g id="PROJECT" transform="translate(-139 -861)">
    <rect id="BG" width="491" height="61" transform="translate(139 861)" fill="rgba(255,255,255,0)"/>
    <g id="コンポーネント_10_1" data-name="コンポーネント 10 – 1" transform="translate(201.9 874.597)">
      <path id="パス_52" data-name="パス 52" d="M28.75-10.9C38-10.9,43.8-14.9,43.8-22c0-7.15-5.85-11.45-15.05-11.45H6.5l-3.6,4.6H26.85c6.85,0,11.55,1.6,11.55,6.8,0,4.85-5.15,6.65-11.5,6.65H3V0H8.4V-10.9ZM102.7,0,89-12.05c6.8-.6,11.2-4.25,11.2-10.25,0-8.15-7.65-11.15-15.45-11.15H62.25l-3.55,4.6H82.75c6.95,0,11.9,1.55,11.9,6.85,0,4.8-5.65,6.6-11.9,6.6H58.8V0h5.4V-11.05H83.4L95.35,0Zm56.25-16.75c0-11.95-7.5-17.25-22.45-17.25s-22.45,5.3-22.45,17.25S121.55.55,136.5.55,158.95-4.8,158.95-16.75Zm-5.4,0c0,9.4-5.2,12.75-17.05,12.75s-17.05-3.35-17.05-12.75,5.2-12.7,17.05-12.7S153.55-26.15,153.55-16.75ZM178.3,0q19.65,0,19.65-15.2V-33.45h-5.4V-15.2c0,6.95-4.15,10.65-14.25,10.65h-6.8L167.95,0Zm67.45,0,3.55-4.55H218.95V-14.8H244.4l3.1-4H218.95V-28.85H245.5l3.55-4.6h-35.5V0ZM298.5,0l3.55-4.55h-18.2c-9.45,0-16.8-3.9-16.8-12.25s7.3-12.05,13.85-12.05h17.6l3.55-4.6H280.9c-11.1,0-19.25,6.6-19.25,16.4C261.65-7.35,269.8,0,280.9,0Zm37.15,0V-28.85h15.6l3.55-4.6H316.1l-3.65,4.6H330.2V0Z" transform="translate(-2.9 34)" fill="#0b0b0b"/>
    </g>
  </g>
</svg>
