<svg xmlns="http://www.w3.org/2000/svg" width="750.5" height="719.436" viewBox="0 0 750.5 719.436">
  <g id="CONTACT" transform="translate(0.5 -12770.5)">
    <rect id="BG-CONTACT" width="750" height="717.4" transform="translate(0 12770.5)" fill="#fff"/>
    <path id="CONTACT-2" data-name="CONTACT" d="M-203.7,2.1A84.481,84.481,0,0,1-223.568.026a39.174,39.174,0,0,1-14.4-6.466,27.382,27.382,0,0,1-8.742-11.177A40.237,40.237,0,0,1-249.6-33.5a40.127,40.127,0,0,1,2.892-15.869,27.26,27.26,0,0,1,8.744-11.143,39.2,39.2,0,0,1,14.4-6.431A85.043,85.043,0,0,1-203.7-69a85.043,85.043,0,0,1,19.866,2.058,39.2,39.2,0,0,1,14.4,6.431,27.26,27.26,0,0,1,8.744,11.143A40.127,40.127,0,0,1-157.8-33.5a40.237,40.237,0,0,1-2.892,15.884A27.382,27.382,0,0,1-169.434-6.44a39.174,39.174,0,0,1-14.4,6.466A84.481,84.481,0,0,1-203.7,2.1Zm0-69.1a83.07,83.07,0,0,0-19.393,2,37.227,37.227,0,0,0-13.668,6.085,25.539,25.539,0,0,0-4.73,4.612,25.7,25.7,0,0,0-3.38,5.723A38.161,38.161,0,0,0-247.6-33.5a38.269,38.269,0,0,0,2.73,15.095,25.835,25.835,0,0,0,3.38,5.74,25.642,25.642,0,0,0,4.73,4.631,37.2,37.2,0,0,0,13.668,6.119A82.507,82.507,0,0,0-203.7.1a82.507,82.507,0,0,0,19.391-2.017,37.2,37.2,0,0,0,13.668-6.119,25.641,25.641,0,0,0,4.73-4.631,25.834,25.834,0,0,0,3.38-5.74A38.269,38.269,0,0,0-159.8-33.5a38.161,38.161,0,0,0-2.73-15.078,25.7,25.7,0,0,0-3.38-5.723,25.539,25.539,0,0,0-4.73-4.612A37.227,37.227,0,0,0-184.307-65,83.07,83.07,0,0,0-203.7-67ZM-60.9,1.6A6.989,6.989,0,0,1-66.2-.682l-52.1-49.779V1h-11.8V-61a8.13,8.13,0,0,1,2.093-5.907A6.756,6.756,0,0,1-123.1-68.8a7.4,7.4,0,0,1,5.4,2.385l52,49.773V-67.9h11.9V-6.2A8.033,8.033,0,0,1-55.951-.285,6.994,6.994,0,0,1-60.9,1.6Zm-59.4-56.738L-64.793-2.107A5.016,5.016,0,0,0-60.9-.4a5.008,5.008,0,0,0,3.551-1.315A6.028,6.028,0,0,0-55.8-6.2V-65.9h-7.9v53.941l-55.407-53.034A5.345,5.345,0,0,0-123.1-66.8a4.866,4.866,0,0,0-3.493,1.307A6.126,6.126,0,0,0-128.1-61V-1h7.8ZM320.9,1H308V-56.7H271.43l8.887-11.2h79.918l-8.643,11.2H320.9ZM310-1h8.9V-58.7h31.709l5.557-7.2H281.283l-5.713,7.2H310ZM246.088,1H210.4a46.1,46.1,0,0,1-15.721-2.66A38.251,38.251,0,0,1,182.16-9.028,33.165,33.165,0,0,1,170.9-34.1a32.252,32.252,0,0,1,2.989-13.819,31.253,31.253,0,0,1,8.294-10.7A37.913,37.913,0,0,1,194.7-65.48a49.748,49.748,0,0,1,15.7-2.42h44.335l-8.643,11.2H210.4a34.029,34.029,0,0,0-9.57,1.376,27.375,27.375,0,0,0-8.6,4.214,20.853,20.853,0,0,0-6.161,7.159A22.3,22.3,0,0,0,183.7-33.6a21.521,21.521,0,0,0,2.471,10.4,20.634,20.634,0,0,0,6.8,7.285c5.692,3.807,13.76,5.819,23.332,5.819h38.449ZM210.4-65.9a47.756,47.756,0,0,0-15.066,2.318,35.925,35.925,0,0,0-11.866,6.5A29.268,29.268,0,0,0,175.7-47.069,30.27,30.27,0,0,0,172.9-34.1,31.3,31.3,0,0,0,175.7-21a31.51,31.51,0,0,0,7.787,10.481A36.26,36.26,0,0,0,195.359-3.54,44.1,44.1,0,0,0,210.4-1h34.712l5.54-7.1H216.3c-9.969,0-18.421-2.129-24.443-6.156a22.611,22.611,0,0,1-7.443-7.993A23.494,23.494,0,0,1,181.7-33.6a22.906,22.906,0,0,1,9.34-19.115,29.363,29.363,0,0,1,9.22-4.527A36.055,36.055,0,0,1,210.4-58.7h34.709l5.557-7.2ZM158.677,1H82.339L90.39-10.1h45.246L106.693-53.7,69.731,1H54.509L98.971-64.259a10.907,10.907,0,0,1,3.126-3.12,8.759,8.759,0,0,1,4.8-1.421,9.346,9.346,0,0,1,7.936,4.55ZM86.261-1h68.663L113.162-63.154A7.512,7.512,0,0,0,106.9-66.8a6.789,6.789,0,0,0-3.722,1.1,8.892,8.892,0,0,0-2.546,2.551l-.006.008L58.291-1H68.669l38.038-56.3L139.364-8.1H91.41ZM18.2,1H5.3V-56.7H-31.27l8.887-11.2H57.535L48.891-56.7H18.2ZM7.3-1h8.9V-58.7H47.909l5.557-7.2H-21.417l-5.713,7.2H7.3ZM-280.012,1H-315.7a46.1,46.1,0,0,1-15.721-2.66A38.251,38.251,0,0,1-343.94-9.028,33.165,33.165,0,0,1-355.2-34.1a32.252,32.252,0,0,1,2.989-13.819,31.253,31.253,0,0,1,8.294-10.7A37.913,37.913,0,0,1-331.4-65.48a49.748,49.748,0,0,1,15.7-2.42h44.335l-8.643,11.2H-315.7a34.029,34.029,0,0,0-9.57,1.376,27.375,27.375,0,0,0-8.6,4.214,20.853,20.853,0,0,0-6.161,7.159A22.3,22.3,0,0,0-342.4-33.6a21.521,21.521,0,0,0,2.471,10.4,20.634,20.634,0,0,0,6.8,7.285c5.692,3.807,13.76,5.819,23.332,5.819h38.449ZM-315.7-65.9a47.755,47.755,0,0,0-15.066,2.318,35.925,35.925,0,0,0-11.866,6.5A29.268,29.268,0,0,0-350.4-47.069,30.27,30.27,0,0,0-353.2-34.1,31.3,31.3,0,0,0-350.4-21a31.51,31.51,0,0,0,7.787,10.481A36.26,36.26,0,0,0-330.741-3.54,44.1,44.1,0,0,0-315.7-1h34.712l5.54-7.1H-309.8c-9.969,0-18.421-2.129-24.443-6.156a22.611,22.611,0,0,1-7.443-7.993A23.494,23.494,0,0,1-344.4-33.6a22.906,22.906,0,0,1,9.34-19.115,29.363,29.363,0,0,1,9.22-4.527A36.055,36.055,0,0,1-315.7-58.7h34.709l5.557-7.2ZM-203.7-7c-12.542,0-20.97-1.872-26.524-5.89A18.764,18.764,0,0,1-236.73-21.2a32.071,32.071,0,0,1-2.07-12.3,31.958,31.958,0,0,1,2.071-12.281,18.653,18.653,0,0,1,6.508-8.281c5.539-3.983,13.966-5.838,26.521-5.838s20.982,1.855,26.521,5.838a18.653,18.653,0,0,1,6.508,8.281A31.957,31.957,0,0,1-168.6-33.5a32.071,32.071,0,0,1-2.07,12.3,18.765,18.765,0,0,1-6.506,8.314C-182.73-8.872-191.158-7-203.7-7Zm0-50.9c-12.115,0-20.172,1.736-25.354,5.462a16.708,16.708,0,0,0-5.827,7.419A30.031,30.031,0,0,0-236.8-33.5a30.143,30.143,0,0,0,1.92,11.535,16.819,16.819,0,0,0,5.829,7.454C-223.856-10.751-215.8-9-203.7-9s20.156-1.751,25.351-5.51a16.819,16.819,0,0,0,5.829-7.454A30.143,30.143,0,0,0-170.6-33.5a30.031,30.031,0,0,0-1.92-11.519,16.708,16.708,0,0,0-5.827-7.419C-183.528-56.164-191.585-57.9-203.7-57.9Z" transform="translate(1.6 13129.7) rotate(90)" fill="#0b0b0b"/>
  </g>
</svg>
