<svg xmlns="http://www.w3.org/2000/svg" width="750" height="34" viewBox="0 0 750 34">
  <g id="STAFF" transform="translate(0 -6909)">
    <rect id="BG-Author-list" width="750" height="34" transform="translate(0 6909)" fill="rgba(255,255,255,0)"/>
    <path id="STAFF-2" data-name="STAFF" d="M-90.925.1c9.2,0,13.25-3.41,13.25-9.829,0-6.068-4.2-9.027-12.35-9.027h-13.5c-6.35,0-9.9-.5-9.9-4.764,0-3.51,2.55-5.316,7.65-5.316h23.95l3.5-4.614h-27.05c-9.2,0-13.3,3.46-13.3,9.578,0,5.867,3.95,9.127,12.4,9.127h13.5c6.25,0,9.9.552,9.9,4.965,0,3.51-2.5,5.316-7.65,5.316h-26.25L-120.325.1Zm46.3,0V-28.835h15.6l3.55-4.614h-38.7l-3.65,4.614h17.75V.1Zm69.8,0L3.775-31.844A4.2,4.2,0,0,0,.225-33.9a4.293,4.293,0,0,0-3.55,2.056L-25.025.1h6.4L.125-27.732l15.4,23.268h-23.3L-11.075.1Zm42.9-14.242,3.3-4.313H44.025V-28.835h25.65l3.55-4.614h-34.6V.1h5.4V-14.142Zm47.9,0,3.3-4.313H91.925V-28.835h25.65l3.55-4.614h-34.6V.1h5.4V-14.142Z" transform="translate(150.325 6942.9)" fill="#0b0b0b"/>
  </g>
</svg>
