<svg xmlns="http://www.w3.org/2000/svg" width="690" height="34" viewBox="0 0 690 34">
  <g id="NEWS" transform="translate(862.75 -2270)">
    <rect id="長方形_105" data-name="長方形 105" width="690" height="34" transform="translate(-862.75 2270)" fill="rgba(255,255,255,0)"/>
    <path id="パス_48" data-name="パス 48" d="M-73.424-1.038a2.964,2.964,0,0,0,2.277.99c1.584,0,3.019-.99,3.019-3.365V-33.455h-4.9V-7.423L-99.6-32.861a3.135,3.135,0,0,0-2.326-1.039c-1.584,0-2.969.99-2.969,3.365V-.345h4.85V-26.476Zm52.806.693,3.514-4.5H-47.145V-14.995h25.191l3.068-3.959H-47.145V-28.9h26.279l3.514-4.553H-52.49V-.345ZM34.366-1.88A3.259,3.259,0,0,0,37.385.1,3.308,3.308,0,0,0,40.5-2.424L51.342-33.455H46.1L36.841-6.829,25.8-31.821A3.044,3.044,0,0,0,22.588-33.9a3.031,3.031,0,0,0-3.118,2.079L8.433-6.829l-9.3-26.626H-6.216L4.573-2.424A3.254,3.254,0,0,0,7.641.1,3.3,3.3,0,0,0,10.71-1.88L22.489-27.912ZM91.033-.345c9.106,0,13.115-3.365,13.115-9.7,0-5.988-4.157-8.908-12.224-8.908H78.561c-6.285,0-9.8-.495-9.8-4.7,0-3.464,2.524-5.246,7.572-5.246H100.04l3.464-4.553H76.73c-9.106,0-13.164,3.415-13.164,9.453,0,5.79,3.91,9.007,12.274,9.007H89.2c6.186,0,9.8.544,9.8,4.9,0,3.464-2.475,5.246-7.572,5.246H65.446l-3.514,4.5Z" transform="translate(-519.1 2303.9)" fill="#fff"/>
  </g>
</svg>
