<svg xmlns="http://www.w3.org/2000/svg" width="751.1" height="708.253" viewBox="0 0 751.1 708.253">
  <g id="PROJECT" transform="translate(1.1 -10010.747)">
    <rect id="長方形_107" data-name="長方形 107" width="750" height="708" transform="translate(0 10011)" fill="#fff"/>
    <path id="PROJECT-2" data-name="PROJECT" d="M273,2.1A84.481,84.481,0,0,1,253.132.026a39.174,39.174,0,0,1-14.4-6.466,27.382,27.382,0,0,1-8.742-11.177A40.237,40.237,0,0,1,227.1-33.5a40.127,40.127,0,0,1,2.892-15.869,27.26,27.26,0,0,1,8.744-11.143,39.2,39.2,0,0,1,14.4-6.431,96.913,96.913,0,0,1,39.733,0,39.2,39.2,0,0,1,14.4,6.431,27.26,27.26,0,0,1,8.744,11.143A40.128,40.128,0,0,1,318.9-33.5a40.238,40.238,0,0,1-2.892,15.884A27.383,27.383,0,0,1,307.266-6.44a39.174,39.174,0,0,1-14.4,6.466A84.481,84.481,0,0,1,273,2.1ZM273-67a83.07,83.07,0,0,0-19.393,2,37.227,37.227,0,0,0-13.668,6.085,25.539,25.539,0,0,0-4.73,4.612,25.7,25.7,0,0,0-3.38,5.723A38.161,38.161,0,0,0,229.1-33.5a38.269,38.269,0,0,0,2.73,15.095,25.835,25.835,0,0,0,3.38,5.74,25.642,25.642,0,0,0,4.73,4.631,37.2,37.2,0,0,0,13.668,6.119A82.507,82.507,0,0,0,273,.1a82.507,82.507,0,0,0,19.391-2.017,37.2,37.2,0,0,0,13.668-6.119,25.642,25.642,0,0,0,4.73-4.631,25.834,25.834,0,0,0,3.38-5.74A38.269,38.269,0,0,0,316.9-33.5a38.161,38.161,0,0,0-2.73-15.078,25.7,25.7,0,0,0-3.38-5.723,25.539,25.539,0,0,0-4.73-4.612A37.227,37.227,0,0,0,292.393-65,83.07,83.07,0,0,0,273-67ZM672.3,1H659.4V-56.7H622.83l8.887-11.2h79.918l-8.643,11.2H672.3ZM661.4-1h8.9V-58.7h31.708l5.557-7.2H632.683l-5.713,7.2H661.4ZM597.488,1H561.8a46.1,46.1,0,0,1-15.721-2.66A38.251,38.251,0,0,1,533.56-9.028,33.165,33.165,0,0,1,522.3-34.1a32.252,32.252,0,0,1,2.989-13.819,31.252,31.252,0,0,1,8.294-10.7A37.913,37.913,0,0,1,546.1-65.48a49.748,49.748,0,0,1,15.7-2.42h44.335l-8.643,11.2H561.8a34.029,34.029,0,0,0-9.57,1.376,27.375,27.375,0,0,0-8.6,4.214,20.853,20.853,0,0,0-6.161,7.159A22.3,22.3,0,0,0,535.1-33.6a21.521,21.521,0,0,0,2.471,10.4,20.635,20.635,0,0,0,6.8,7.285c5.692,3.807,13.76,5.819,23.332,5.819h38.449ZM561.8-65.9a47.756,47.756,0,0,0-15.066,2.318,35.925,35.925,0,0,0-11.866,6.5A29.268,29.268,0,0,0,527.1-47.069,30.27,30.27,0,0,0,524.3-34.1,31.3,31.3,0,0,0,527.1-21a31.51,31.51,0,0,0,7.787,10.481A36.26,36.26,0,0,0,546.759-3.54,44.1,44.1,0,0,0,561.8-1h34.712l5.54-7.1H567.7c-9.969,0-18.421-2.129-24.443-6.156a22.611,22.611,0,0,1-7.443-7.993A23.494,23.494,0,0,1,533.1-33.6a22.906,22.906,0,0,1,9.34-19.115,29.363,29.363,0,0,1,9.22-4.527A36.055,36.055,0,0,1,561.8-58.7h34.709l5.557-7.2ZM491.988,1H426.1V-67.9h74.035l-8.643,11.2H438.9v18.1h58.14l-7.75,10H438.9v18.5h61.749ZM428.1-1h62.912l5.54-7.1H436.9V-30.6h51.41l4.65-6H436.9V-58.7h53.609l5.557-7.2H428.1ZM356.6,1H333.851l8.66-11.1H356.6a52.954,52.954,0,0,0,12.731-1.343,22.7,22.7,0,0,0,8.479-3.883c4.233-3.3,6.29-8.232,6.29-15.074V-67.9h12.8v37.5a34.577,34.577,0,0,1-2.538,13.71A24.73,24.73,0,0,1,386.687-6.8,34.623,34.623,0,0,1,374.043-.927,70.761,70.761,0,0,1,356.6,1ZM337.949-1H356.6a68.789,68.789,0,0,0,16.945-1.864,32.648,32.648,0,0,0,11.919-5.515,22.753,22.753,0,0,0,7.062-9.1A32.608,32.608,0,0,0,394.9-30.4V-65.9h-8.8v35.5a25.08,25.08,0,0,1-1.688,9.574,17.179,17.179,0,0,1-5.372,7.077A24.666,24.666,0,0,1,369.819-9.5,54.919,54.919,0,0,1,356.6-8.1H343.488Zm-129.9,2H190.309l-23.9-22.1H129.4V1H116.6V-31.8h48.9c6.6,0,12.189-1,16.156-2.9,4.409-2.11,6.644-5.238,6.644-9.3a10.254,10.254,0,0,0-6.134-9.93c-3.739-1.864-9.191-2.77-16.666-2.77H115.365l8.643-11.2H169.5a53.111,53.111,0,0,1,11.629,1.217,33.617,33.617,0,0,1,10.193,3.968,21.051,21.051,0,0,1,7.305,7.248A21.138,21.138,0,0,1,201.4-44.6a21.211,21.211,0,0,1-1.67,8.5,18.7,18.7,0,0,1-4.765,6.552,23.612,23.612,0,0,1-7.372,4.366,33.942,33.942,0,0,1-7.243,1.822Zm-16.96-2h11.657L175.587-24.891l2.325-.205c6.567-.579,12-2.637,15.723-5.951A16.718,16.718,0,0,0,197.9-36.9a19.227,19.227,0,0,0,1.5-7.7,19.169,19.169,0,0,0-2.5-9.854,19.075,19.075,0,0,0-6.626-6.556,31.631,31.631,0,0,0-9.588-3.723A51.114,51.114,0,0,0,169.5-65.9H124.991l-5.557,7.2H165.5c7.793,0,13.536.975,17.559,2.98A12.244,12.244,0,0,1,190.3-44a10.991,10.991,0,0,1-2.158,6.709,14.83,14.83,0,0,1-5.622,4.393c-4.234,2.027-10.12,3.1-17.019,3.1H118.6V-1h8.8V-23.1h39.791ZM17.8,1H5V-31.8H53.8c6.6,0,12.066-1,15.81-2.9a11.918,11.918,0,0,0,4.557-3.79A9.728,9.728,0,0,0,75.8-44.1a10.184,10.184,0,0,0-5.872-9.812C66.3-55.788,60.99-56.7,53.7-56.7H3.748l8.765-11.2H57.5c9.294,0,17.092,2.175,22.552,6.289A21.211,21.211,0,0,1,88.6-44a21.9,21.9,0,0,1-2.208,9.907,20.194,20.194,0,0,1-6.318,7.328,29.4,29.4,0,0,1-9.812,4.46A50.345,50.345,0,0,1,57.5-20.8H17.8ZM7-1h8.8V-22.8H57.5a48.359,48.359,0,0,0,12.253-1.439A27.418,27.418,0,0,0,78.9-28.385a18.215,18.215,0,0,0,5.7-6.6A19.929,19.929,0,0,0,86.6-44a20.606,20.606,0,0,0-2.013-9.17,19.09,19.09,0,0,0-5.739-6.844C73.738-63.865,66.356-65.9,57.5-65.9H13.487L7.852-58.7H53.7c7.618,0,13.226.985,17.147,3.012A12.176,12.176,0,0,1,77.8-44.1a11.689,11.689,0,0,1-1.982,6.735,13.881,13.881,0,0,1-5.3,4.444,27.46,27.46,0,0,1-7.589,2.391A52.608,52.608,0,0,1,53.8-29.8H7ZM273-7c-12.542,0-20.97-1.872-26.524-5.89A18.764,18.764,0,0,1,239.97-21.2a32.071,32.071,0,0,1-2.07-12.3,31.958,31.958,0,0,1,2.071-12.281,18.653,18.653,0,0,1,6.508-8.281C252.018-58.045,260.445-59.9,273-59.9s20.982,1.855,26.521,5.838a18.653,18.653,0,0,1,6.508,8.281A31.958,31.958,0,0,1,308.1-33.5a32.072,32.072,0,0,1-2.07,12.3,18.765,18.765,0,0,1-6.506,8.314C293.97-8.872,285.542-7,273-7Zm0-50.9c-12.115,0-20.172,1.736-25.354,5.462a16.708,16.708,0,0,0-5.827,7.419A30.031,30.031,0,0,0,239.9-33.5a30.143,30.143,0,0,0,1.92,11.535,16.819,16.819,0,0,0,5.829,7.454C252.844-10.751,260.9-9,273-9s20.156-1.751,25.351-5.51a16.819,16.819,0,0,0,5.829-7.454A30.143,30.143,0,0,0,306.1-33.5a30.031,30.031,0,0,0-1.92-11.519,16.708,16.708,0,0,0-5.827-7.419C293.172-56.164,285.115-57.9,273-57.9Z" transform="translate(1 10007) rotate(90)"/>
  </g>
</svg>
