<svg xmlns="http://www.w3.org/2000/svg" width="750.409" height="721" viewBox="0 0 750.409 721">
  <g id="concept" transform="translate(0 -11766)">
    <rect id="bg-concept" width="750" height="721" transform="translate(0 11766)" fill="#f4f4f4"/>
    <path id="CONCEPT-2" data-name="CONCEPT" d="M152.955,2.089A83.644,83.644,0,0,1,133.283.035a38.792,38.792,0,0,1-14.257-6.4,27.117,27.117,0,0,1-8.658-11.069A39.844,39.844,0,0,1,107.5-33.165a39.736,39.736,0,0,1,2.864-15.714,27,27,0,0,1,8.659-11.035,38.814,38.814,0,0,1,14.257-6.368,84.2,84.2,0,0,1,19.67-2.038,84.2,84.2,0,0,1,19.67,2.038,38.814,38.814,0,0,1,14.257,6.368,27,27,0,0,1,8.659,11.035,39.736,39.736,0,0,1,2.864,15.714,39.844,39.844,0,0,1-2.864,15.729,27.117,27.117,0,0,1-8.658,11.069,38.792,38.792,0,0,1-14.257,6.4A83.644,83.644,0,0,1,152.955,2.089Zm0-68.409a82.224,82.224,0,0,0-19.2,1.981,36.845,36.845,0,0,0-13.528,6.023,25.272,25.272,0,0,0-4.681,4.564,25.435,25.435,0,0,0-3.345,5.664,37.769,37.769,0,0,0-2.7,14.924,37.877,37.877,0,0,0,2.7,14.94,25.572,25.572,0,0,0,3.345,5.68,25.379,25.379,0,0,0,4.681,4.583A36.821,36.821,0,0,0,133.76-1.907a81.669,81.669,0,0,0,19.2,2,81.67,81.67,0,0,0,19.2-2,36.821,36.821,0,0,0,13.528-6.056,25.378,25.378,0,0,0,4.681-4.583,25.572,25.572,0,0,0,3.345-5.68,37.877,37.877,0,0,0,2.7-14.94,37.769,37.769,0,0,0-2.7-14.924,25.434,25.434,0,0,0-3.345-5.664,25.272,25.272,0,0,0-4.681-4.564,36.845,36.845,0,0,0-13.528-6.023A82.225,82.225,0,0,0,152.955-66.32ZM294.327,1.594a6.93,6.93,0,0,1-5.251-2.262L237.511-49.933V1h-11.7V-60.39a8.057,8.057,0,0,1,2.075-5.855,6.7,6.7,0,0,1,4.865-1.877,7.331,7.331,0,0,1,5.353,2.364L289.565-16.5V-67.231h11.8V-6.138a7.963,7.963,0,0,1-2.132,5.863A6.934,6.934,0,0,1,294.327,1.594Zm-58.816-56.2L290.48-2.093a4.956,4.956,0,0,0,3.847,1.687,4.948,4.948,0,0,0,3.508-1.3,5.959,5.959,0,0,0,1.531-4.433V-65.231h-7.8v53.415l-54.87-52.52a5.282,5.282,0,0,0-3.946-1.786,4.807,4.807,0,0,0-3.451,1.291,6.054,6.054,0,0,0-1.489,4.441V-1h7.7ZM684.892,1H672.1V-56.123H635.886L644.7-67.231h79.144l-8.572,11.108h-30.38ZM674.1-1h8.791V-58.123h31.4l5.485-7.108H645.666l-5.64,7.108H674.1Zm-129,2H532.412V-31.492h48.322c6.532,0,11.942-.994,15.647-2.874a11.789,11.789,0,0,0,4.508-3.749,9.621,9.621,0,0,0,1.615-5.544,10.073,10.073,0,0,0-5.808-9.7c-3.592-1.857-8.846-2.759-16.061-2.759H531.162l8.693-11.108H584.4c9.2,0,16.926,2.154,22.332,6.228A21.009,21.009,0,0,1,615.2-43.56a21.7,21.7,0,0,1-2.187,9.813,20,20,0,0,1-6.258,7.258,29.115,29.115,0,0,1-9.717,4.417,49.855,49.855,0,0,1-12.638,1.49H545.1ZM534.412-1H543.1V-22.582H584.4a47.868,47.868,0,0,0,12.128-1.424,27.136,27.136,0,0,0,9.053-4.1,18.022,18.022,0,0,0,5.643-6.534A19.719,19.719,0,0,0,613.2-43.56a20.389,20.389,0,0,0-1.992-9.074,18.889,18.889,0,0,0-5.678-6.772c-5.057-3.811-12.363-5.825-21.129-5.825H540.829l-5.563,7.108h45.369c7.543,0,13.1.976,16.98,2.983A12.064,12.064,0,0,1,604.5-43.659a11.583,11.583,0,0,1-1.964,6.673,13.753,13.753,0,0,1-5.253,4.4,27.192,27.192,0,0,1-7.515,2.368,52.082,52.082,0,0,1-9.037.722H534.412ZM500.438,1H435.194V-67.231h73.325l-8.572,11.108H447.886v17.9h57.569l-7.688,9.92H447.886v18.295h61.142ZM437.194-1h62.268l5.469-7.009H445.886V-30.3h50.9l4.588-5.92H445.886v-21.9h53.078l5.486-7.108H437.194ZM403.121,1H367.785a45.647,45.647,0,0,1-15.567-2.634,37.877,37.877,0,0,1-12.4-7.3A32.844,32.844,0,0,1,328.67-33.759a31.94,31.94,0,0,1,2.96-13.685,30.95,30.95,0,0,1,8.213-10.594,37.544,37.544,0,0,1,12.4-6.8,49.26,49.26,0,0,1,15.543-2.4H411.7l-8.572,11.108H367.785a33.679,33.679,0,0,0-9.471,1.362,27.089,27.089,0,0,0-8.506,4.17,20.636,20.636,0,0,0-6.1,7.084,22.068,22.068,0,0,0-2.349,10.243,21.3,21.3,0,0,0,2.445,10.287,20.418,20.418,0,0,0,6.726,7.209c5.634,3.768,13.619,5.759,23.093,5.759H411.71ZM367.785-65.231a47.268,47.268,0,0,0-14.912,2.294,35.557,35.557,0,0,0-11.744,6.431,28.965,28.965,0,0,0-7.689,9.912,29.957,29.957,0,0,0-2.77,12.835A30.979,30.979,0,0,0,333.444-20.8a31.186,31.186,0,0,0,7.706,10.373A35.886,35.886,0,0,0,352.9-3.514,43.654,43.654,0,0,0,367.785-1h34.36l5.468-7.009H373.626c-9.871,0-18.241-2.108-24.2-6.1a22.4,22.4,0,0,1-7.372-7.916,23.27,23.27,0,0,1-2.688-11.242A22.687,22.687,0,0,1,348.613-52.2a29.081,29.081,0,0,1,9.131-4.483,35.706,35.706,0,0,1,10.041-1.444h34.357l5.485-7.108ZM77.411,1H42.075A45.648,45.648,0,0,1,26.508-1.634a37.878,37.878,0,0,1-12.4-7.3A32.843,32.843,0,0,1,2.96-33.759,31.94,31.94,0,0,1,5.92-47.444a30.95,30.95,0,0,1,8.213-10.594,37.545,37.545,0,0,1,12.4-6.8,49.26,49.26,0,0,1,15.543-2.4H85.987L77.414-56.123H42.075A33.679,33.679,0,0,0,32.6-54.761a27.09,27.09,0,0,0-8.506,4.17A20.635,20.635,0,0,0,18-43.507a22.068,22.068,0,0,0-2.349,10.243A21.3,21.3,0,0,0,18.1-22.977a20.418,20.418,0,0,0,6.726,7.209C30.457-12,38.442-10.009,47.916-10.009H86ZM42.075-65.231a47.268,47.268,0,0,0-14.912,2.294,35.557,35.557,0,0,0-11.744,6.431A28.964,28.964,0,0,0,7.73-46.594,29.957,29.957,0,0,0,4.96-33.759,30.979,30.979,0,0,0,7.734-20.8a31.183,31.183,0,0,0,7.706,10.373,35.886,35.886,0,0,0,11.747,6.91A43.654,43.654,0,0,0,42.075-1h34.36L81.9-8.009H47.916c-9.871,0-18.241-2.108-24.2-6.1a22.394,22.394,0,0,1-7.372-7.916,23.269,23.269,0,0,1-2.688-11.242A22.687,22.687,0,0,1,22.9-52.2a29.082,29.082,0,0,1,9.131-4.483,35.7,35.7,0,0,1,10.041-1.444H76.432l5.486-7.108ZM152.955-6.92c-12.419,0-20.765-1.853-26.264-5.833a18.588,18.588,0,0,1-6.444-8.235,31.76,31.76,0,0,1-2.05-12.177,31.646,31.646,0,0,1,2.051-12.162,18.476,18.476,0,0,1,6.446-8.2c5.485-3.944,13.83-5.782,26.262-5.782s20.777,1.837,26.262,5.782a18.476,18.476,0,0,1,6.446,8.2,31.646,31.646,0,0,1,2.051,12.162,31.761,31.761,0,0,1-2.05,12.177,18.588,18.588,0,0,1-6.444,8.235C173.72-8.773,165.374-6.92,152.955-6.92Zm0-50.391c-11.992,0-19.966,1.718-25.094,5.405a16.532,16.532,0,0,0-5.765,7.341,29.722,29.722,0,0,0-1.9,11.4,29.83,29.83,0,0,0,1.9,11.416,16.641,16.641,0,0,0,5.767,7.376C133-10.653,140.978-8.92,152.955-8.92s19.95-1.733,25.092-5.453a16.641,16.641,0,0,0,5.767-7.376,29.83,29.83,0,0,0,1.9-11.416,29.722,29.722,0,0,0-1.9-11.4,16.533,16.533,0,0,0-5.765-7.341C172.921-55.593,164.947-57.311,152.955-57.311Z" transform="translate(682.089 11763.04) rotate(90)" fill="#0b0b0b"/>
  </g>
</svg>
