<svg xmlns="http://www.w3.org/2000/svg" width="690" height="48" viewBox="0 0 690 48">
  <g id="TWITTER" transform="translate(-30 -2870)">
    <rect id="長方形_106" data-name="長方形 106" width="690" height="48" transform="translate(30 2870)" fill="rgba(255,255,255,0)"/>
    <path id="パス_49" data-name="パス 49" d="M-178.625,0l-20.05-17.4,18.65-16.05h-7.05l-14.9,13.05-14.8-13.05h-7.5l18.65,16.25L-225.575,0h6.8l16.3-14.1,16.2,14.1Zm23.35,6.45c-4.25-9-5.95-16.15-5.95-23.1,0-7,1.9-14.15,5.9-23h-3.1c-3.75,8.35-5.6,15.5-5.6,22.95,0,7.4,1.7,14.65,5.7,23.15Zm35.2-6.45V-28.85h15.6l3.55-4.6h-38.7l-3.65,4.6h17.75V0Zm70.8-1.55a3.293,3.293,0,0,0,3.05,2,3.342,3.342,0,0,0,3.15-2.55l10.95-31.35h-5.3l-9.35,26.9L-57.925-31.8a3.075,3.075,0,0,0-3.25-2.1,3.063,3.063,0,0,0-3.15,2.1L-75.475-6.55l-9.4-26.9h-5.4l10.9,31.35a3.288,3.288,0,0,0,3.1,2.55,3.337,3.337,0,0,0,3.1-2l11.9-26.3ZM-12.875,0V-33.45h-5.4V0Zm36.4,0V-28.85h15.6l3.55-4.6H3.975l-3.65,4.6h17.75V0Zm52.35,0V-28.85h15.6l3.55-4.6h-38.7l-3.65,4.6h17.75V0Zm64.35,0,3.55-4.55h-30.35V-14.8h25.45l3.1-4h-28.55V-28.85h26.55l3.55-4.6h-35.5V0Zm60.8,0-13.7-12.05c6.8-.6,11.2-4.25,11.2-10.25,0-8.15-7.65-11.15-15.45-11.15h-22.5l-3.55,4.6h24.05c6.95,0,11.9,1.55,11.9,6.85,0,4.8-5.65,6.6-11.9,6.6h-23.95V0h5.4V-11.05h19.2L193.675,0Zm15.55,6.45c4-8.5,5.7-15.75,5.7-23.15,0-7.45-1.85-14.6-5.6-22.95h-3.1c4,8.85,5.9,16,5.9,23,0,6.95-1.75,14.1-5.95,23.1Z" transform="translate(374.75 2911)" fill="#fff"/>
  </g>
</svg>
