<svg xmlns="http://www.w3.org/2000/svg" width="750" height="34" viewBox="0 0 750 34">
  <g id="author-list" transform="translate(0 -6196)">
    <rect id="BG-Author-list" width="750" height="34" transform="translate(0 6196)" fill="rgba(255,255,255,0)"/>
    <path id="パス_33" data-name="パス 33" d="M-212.75-.541l-21.4-31.343A4.218,4.218,0,0,0-237.7-33.9a4.308,4.308,0,0,0-3.55,2.017L-262.95-.541h6.4l18.75-27.308,15.4,22.831h-23.3L-249-.541Zm44.6-14.368c0,7.381-2.4,10.48-13.95,10.48s-16-3.1-16-10.48v-18.55h-5.4v18.55C-203.5-4.97-197.05,0-182.1,0c12.9,0,19.4-4.97,19.4-14.909v-18.55h-5.45Zm41.2,14.368V-28.932h15.6l3.55-4.527h-38.7l-3.65,4.527h17.75V-.541Zm68.65,0V-33.459h-5.4v13.58H-89.4v-13.58h-5.4V-.541h5.4v-14.81h25.7V-.541ZM1.65-17.025C1.65-28.784-5.85-34-20.8-34s-22.45,5.216-22.45,16.975S-35.75,0-20.8,0,1.65-5.265,1.65-17.025Zm-5.4,0c0,9.25-5.2,12.547-17.05,12.547s-17.05-3.3-17.05-12.547,5.2-12.5,17.05-12.5S-3.75-26.275-3.75-17.025ZM60.55-.541,46.85-12.4c6.8-.59,11.2-4.182,11.2-10.087,0-8.02-7.65-10.973-15.45-10.973H20.1l-3.55,4.527H40.6c6.95,0,11.9,1.525,11.9,6.741,0,4.724-5.65,6.495-11.9,6.495H16.65V-.541h5.4V-11.415h19.2L53.2-.541Zm71.4,0,3.55-4.478H107.6v-28.44h-5.4V-.541Zm22.35,0V-33.459h-5.4V-.541Zm43.7,0c9.2,0,13.25-3.346,13.25-9.644,0-5.954-4.2-8.857-12.35-8.857H185.4c-6.35,0-9.9-.492-9.9-4.674,0-3.444,2.55-5.216,7.65-5.216H207.1l3.5-4.527H183.55c-9.2,0-13.3,3.4-13.3,9.4,0,5.757,3.95,8.955,12.4,8.955h13.5c6.25,0,9.9.541,9.9,4.871,0,3.444-2.5,5.216-7.65,5.216H172.15L168.6-.541Zm46.3,0V-28.932h15.6l3.55-4.527h-38.7l-3.65,4.527h17.75V-.541Z" transform="translate(292.95 6230)" fill="#0b0b0b"/>
  </g>
</svg>
